<svg width="896" height="139" viewBox="0 0 896 139" fill="none" xmlns="http://www.w3.org/2000/svg">
<g clip-path="url(#clip0_1011_3)">
<path d="M0 139L896 139L896 0L6.38186e-06 -0.00014915L0 139Z" fill="url(#paint0_linear_1011_3)"/>
<mask id="mask0_1011_3" style="mask-type:alpha" maskUnits="userSpaceOnUse" x="0" y="0" width="896" height="139">
<path d="M896 0H0V139H896V0Z" fill="url(#paint1_linear_1011_3)"/>
</mask>
<g mask="url(#mask0_1011_3)">
<path d="M32.5001 0V139M64.5001 0V139M96.5001 0V139M128.5 0V139M160.5 0V139M192.5 0V139M224.5 0V139M256.5 0V139M288.5 0V139M320.5 0V139M352.5 0V139M384.5 0V139M416.5 0V139M448.5 0V139M480.5 0V139M512.5 0V139M544.5 0V139M576.5 0V139M608.5 0V139M640.5 0V139M672.5 0V139M704.5 0V139M736.5 0V139M768.5 0V139M800.5 0V139M832.5 0V139M864.5 0V139M0 15.2031H896M0 30.6476H896M0 46.092H896M0 61.5365H896M0 76.9809H896M0 92.4253H896M0 107.87H896M0 123.314H896" stroke="white" stroke-opacity="0.04" stroke-dasharray="5 5"/>
</g>
<path d="M358.645 78.1703C357.877 78.1703 357.141 78.0583 356.437 77.8343C355.733 77.6103 355.162 77.2903 354.725 76.8743L355.301 76.0103C355.695 76.3623 356.181 76.6397 356.757 76.8423C357.343 77.0557 357.962 77.1623 358.613 77.1623C359.679 77.1623 360.463 76.9117 360.965 76.4103C361.466 75.9197 361.717 75.1517 361.717 74.1063V72.0103L361.877 70.5703L361.765 69.1303V66.5863H362.853V73.9623C362.853 75.413 362.495 76.4743 361.781 77.1463C361.077 77.829 360.031 78.1703 358.645 78.1703ZM358.437 74.6663C357.637 74.6663 356.917 74.4957 356.277 74.1543C355.637 73.8023 355.13 73.317 354.757 72.6983C354.394 72.0797 354.213 71.3703 354.213 70.5703C354.213 69.7703 354.394 69.0663 354.757 68.4583C355.13 67.8397 355.637 67.3597 356.277 67.0183C356.917 66.677 357.637 66.5063 358.437 66.5063C359.183 66.5063 359.855 66.661 360.453 66.9703C361.05 67.2797 361.525 67.7383 361.877 68.3463C362.229 68.9543 362.405 69.6957 362.405 70.5703C362.405 71.445 362.229 72.1863 361.877 72.7943C361.525 73.4023 361.05 73.8663 360.453 74.1863C359.855 74.5063 359.183 74.6663 358.437 74.6663ZM358.549 73.6583C359.167 73.6583 359.717 73.5303 360.197 73.2743C360.677 73.0077 361.055 72.645 361.333 72.1863C361.61 71.717 361.749 71.1783 361.749 70.5703C361.749 69.9623 361.61 69.429 361.333 68.9703C361.055 68.5117 360.677 68.1543 360.197 67.8983C359.717 67.6317 359.167 67.4983 358.549 67.4983C357.941 67.4983 357.391 67.6317 356.901 67.8983C356.421 68.1543 356.042 68.5117 355.765 68.9703C355.498 69.429 355.365 69.9623 355.365 70.5703C355.365 71.1783 355.498 71.717 355.765 72.1863C356.042 72.645 356.421 73.0077 356.901 73.2743C357.391 73.5303 357.941 73.6583 358.549 73.6583ZM366.014 74.9863V66.5863H367.15V74.9863H366.014ZM366.59 64.7303C366.355 64.7303 366.158 64.6503 365.998 64.4903C365.838 64.3303 365.758 64.1383 365.758 63.9143C365.758 63.6903 365.838 63.5037 365.998 63.3543C366.158 63.1943 366.355 63.1143 366.59 63.1143C366.824 63.1143 367.022 63.189 367.182 63.3383C367.342 63.4877 367.422 63.6743 367.422 63.8983C367.422 64.133 367.342 64.3303 367.182 64.4903C367.032 64.6503 366.835 64.7303 366.59 64.7303ZM372.967 75.0663C372.177 75.0663 371.569 74.853 371.143 74.4263C370.716 73.9997 370.503 73.397 370.503 72.6183V64.7303H371.639V72.5543C371.639 73.045 371.761 73.4237 372.007 73.6903C372.263 73.957 372.625 74.0903 373.095 74.0903C373.596 74.0903 374.012 73.9463 374.343 73.6583L374.743 74.4743C374.519 74.677 374.247 74.8263 373.927 74.9223C373.617 75.0183 373.297 75.0663 372.967 75.0663ZM368.999 67.5303V66.5863H374.199V67.5303H368.999ZM381.099 66.5063C381.781 66.5063 382.379 66.6397 382.891 66.9063C383.413 67.1623 383.819 67.557 384.107 68.0903C384.405 68.6237 384.555 69.2957 384.555 70.1063V74.9863H383.419V70.2183C383.419 69.333 383.195 68.6663 382.747 68.2183C382.309 67.7597 381.691 67.5303 380.891 67.5303C380.293 67.5303 379.771 67.653 379.323 67.8983C378.885 68.133 378.544 68.4797 378.299 68.9383C378.064 69.3863 377.947 69.9303 377.947 70.5703V74.9863H376.811V63.1143H377.947V68.8903L377.723 68.4583C377.989 67.8503 378.416 67.3757 379.003 67.0343C379.589 66.6823 380.288 66.5063 381.099 66.5063ZM391.095 75.0663C390.38 75.0663 389.756 74.933 389.223 74.6663C388.69 74.3997 388.274 73.9997 387.975 73.4663C387.687 72.933 387.543 72.2663 387.543 71.4663V66.5863H388.679V71.3383C388.679 72.2343 388.898 72.9117 389.335 73.3703C389.783 73.8183 390.407 74.0423 391.207 74.0423C391.794 74.0423 392.3 73.925 392.727 73.6903C393.164 73.445 393.495 73.093 393.719 72.6343C393.954 72.1757 394.071 71.6263 394.071 70.9863V66.5863H395.207V74.9863H394.119V72.6823L394.295 73.0983C394.028 73.717 393.612 74.2023 393.047 74.5543C392.492 74.8957 391.842 75.0663 391.095 75.0663ZM402.709 75.0663C401.973 75.0663 401.312 74.901 400.725 74.5703C400.138 74.229 399.674 73.7383 399.333 73.0983C398.992 72.4583 398.821 71.685 398.821 70.7783C398.821 69.861 398.992 69.0877 399.333 68.4583C399.685 67.8183 400.154 67.333 400.741 67.0023C401.328 66.6717 401.984 66.5063 402.709 66.5063C403.509 66.5063 404.224 66.6877 404.853 67.0503C405.493 67.4023 405.994 67.8983 406.357 68.5383C406.72 69.1783 406.901 69.925 406.901 70.7783C406.901 71.621 406.72 72.3677 406.357 73.0183C405.994 73.6583 405.493 74.1597 404.853 74.5223C404.224 74.885 403.509 75.0663 402.709 75.0663ZM398.373 74.9863V63.1143H399.509V69.0663L399.349 70.7623L399.461 72.4583V74.9863H398.373ZM402.629 74.0583C403.226 74.0583 403.76 73.925 404.229 73.6583C404.698 73.381 405.072 72.997 405.349 72.5063C405.626 72.005 405.765 71.429 405.765 70.7783C405.765 70.117 405.626 69.541 405.349 69.0503C405.072 68.5597 404.698 68.181 404.229 67.9143C403.76 67.637 403.226 67.4983 402.629 67.4983C402.032 67.4983 401.493 67.637 401.013 67.9143C400.544 68.181 400.17 68.5597 399.893 69.0503C399.626 69.541 399.493 70.117 399.493 70.7783C399.493 71.429 399.626 72.005 399.893 72.5063C400.17 72.997 400.544 73.381 401.013 73.6583C401.493 73.925 402.032 74.0583 402.629 74.0583ZM409.094 75.0663C408.86 75.0663 408.657 74.981 408.486 74.8103C408.326 74.6397 408.246 74.4317 408.246 74.1863C408.246 73.9303 408.326 73.7223 408.486 73.5623C408.657 73.4023 408.86 73.3223 409.094 73.3223C409.329 73.3223 409.526 73.4023 409.686 73.5623C409.857 73.7223 409.942 73.9303 409.942 74.1863C409.942 74.4317 409.857 74.6397 409.686 74.8103C409.526 74.981 409.329 75.0663 409.094 75.0663ZM415.627 75.0663C414.795 75.0663 414.048 74.885 413.387 74.5223C412.736 74.149 412.224 73.6423 411.851 73.0023C411.477 72.3517 411.291 71.6103 411.291 70.7783C411.291 69.9357 411.477 69.1943 411.851 68.5543C412.224 67.9143 412.736 67.413 413.387 67.0503C414.048 66.6877 414.795 66.5063 415.627 66.5063C416.341 66.5063 416.987 66.645 417.563 66.9223C418.139 67.1997 418.592 67.6157 418.923 68.1703L418.075 68.7463C417.787 68.3197 417.429 68.005 417.003 67.8023C416.576 67.5997 416.112 67.4983 415.611 67.4983C415.013 67.4983 414.475 67.637 413.995 67.9143C413.515 68.181 413.136 68.5597 412.859 69.0503C412.581 69.541 412.443 70.117 412.443 70.7783C412.443 71.4397 412.581 72.0157 412.859 72.5063C413.136 72.997 413.515 73.381 413.995 73.6583C414.475 73.925 415.013 74.0583 415.611 74.0583C416.112 74.0583 416.576 73.957 417.003 73.7543C417.429 73.5517 417.787 73.2423 418.075 72.8263L418.923 73.4023C418.592 73.9463 418.139 74.3623 417.563 74.6503C416.987 74.9277 416.341 75.0663 415.627 75.0663ZM424.438 75.0663C423.627 75.0663 422.896 74.885 422.246 74.5223C421.606 74.149 421.099 73.6423 420.726 73.0023C420.352 72.3517 420.166 71.6103 420.166 70.7783C420.166 69.9357 420.352 69.1943 420.726 68.5543C421.099 67.9143 421.606 67.413 422.246 67.0503C422.886 66.6877 423.616 66.5063 424.438 66.5063C425.27 66.5063 426.006 66.6877 426.646 67.0503C427.296 67.413 427.803 67.9143 428.166 68.5543C428.539 69.1943 428.726 69.9357 428.726 70.7783C428.726 71.6103 428.539 72.3517 428.166 73.0023C427.803 73.6423 427.296 74.149 426.646 74.5223C425.995 74.885 425.259 75.0663 424.438 75.0663ZM424.438 74.0583C425.046 74.0583 425.584 73.925 426.054 73.6583C426.523 73.381 426.891 72.997 427.158 72.5063C427.435 72.005 427.574 71.429 427.574 70.7783C427.574 70.117 427.435 69.541 427.158 69.0503C426.891 68.5597 426.523 68.181 426.054 67.9143C425.584 67.637 425.051 67.4983 424.454 67.4983C423.856 67.4983 423.323 67.637 422.854 67.9143C422.384 68.181 422.011 68.5597 421.734 69.0503C421.456 69.541 421.318 70.117 421.318 70.7783C421.318 71.429 421.456 72.005 421.734 72.5063C422.011 72.997 422.384 73.381 422.854 73.6583C423.323 73.925 423.851 74.0583 424.438 74.0583ZM441.541 66.5063C442.224 66.5063 442.816 66.6397 443.317 66.9063C443.829 67.1623 444.224 67.557 444.501 68.0903C444.789 68.6237 444.933 69.2957 444.933 70.1063V74.9863H443.797V70.2183C443.797 69.333 443.584 68.6663 443.157 68.2183C442.741 67.7597 442.149 67.5303 441.381 67.5303C440.805 67.5303 440.304 67.653 439.877 67.8983C439.461 68.133 439.136 68.4797 438.901 68.9383C438.677 69.3863 438.565 69.9303 438.565 70.5703V74.9863H437.429V70.2183C437.429 69.333 437.216 68.6663 436.789 68.2183C436.362 67.7597 435.765 67.5303 434.997 67.5303C434.432 67.5303 433.936 67.653 433.509 67.8983C433.082 68.133 432.752 68.4797 432.517 68.9383C432.293 69.3863 432.181 69.9303 432.181 70.5703V74.9863H431.045V66.5863H432.133V68.8583L431.957 68.4583C432.213 67.8503 432.624 67.3757 433.189 67.0343C433.765 66.6823 434.442 66.5063 435.221 66.5063C436.042 66.5063 436.741 66.7143 437.317 67.1303C437.893 67.5357 438.266 68.149 438.437 68.9703L437.989 68.7943C438.234 68.1117 438.666 67.5623 439.285 67.1463C439.914 66.7197 440.666 66.5063 441.541 66.5063ZM446.03 76.5863L451.31 61.5143H452.35L447.07 76.5863H446.03ZM453.373 74.9863V63.1143H454.509V74.9863H453.373ZM461.142 75.0663C460.427 75.0663 459.803 74.933 459.27 74.6663C458.737 74.3997 458.321 73.9997 458.022 73.4663C457.734 72.933 457.59 72.2663 457.59 71.4663V66.5863H458.726V71.3383C458.726 72.2343 458.945 72.9117 459.382 73.3703C459.83 73.8183 460.454 74.0423 461.254 74.0423C461.841 74.0423 462.347 73.925 462.774 73.6903C463.211 73.445 463.542 73.093 463.766 72.6343C464.001 72.1757 464.118 71.6263 464.118 70.9863V66.5863H465.254V74.9863H464.166V72.6823L464.342 73.0983C464.075 73.717 463.659 74.2023 463.094 74.5543C462.539 74.8957 461.889 75.0663 461.142 75.0663ZM467.14 74.9863L470.692 70.3783L470.676 70.9383L467.3 66.5863H468.58L471.348 70.1863L470.868 70.1703L473.636 66.5863H474.884L471.476 70.9863L471.492 70.3783L475.076 74.9863H473.78L470.852 71.1463L471.3 71.2103L468.42 74.9863H467.14ZM482.075 74.9863V73.1303L482.027 72.8263V69.7223C482.027 69.0077 481.824 68.4583 481.419 68.0743C481.024 67.6903 480.432 67.4983 479.643 67.4983C479.099 67.4983 478.581 67.589 478.091 67.7703C477.6 67.9517 477.184 68.1917 476.843 68.4903L476.331 67.6423C476.757 67.2797 477.269 67.0023 477.867 66.8103C478.464 66.6077 479.093 66.5063 479.755 66.5063C480.843 66.5063 481.68 66.7783 482.267 67.3223C482.864 67.8557 483.163 68.6717 483.163 69.7703V74.9863H482.075ZM479.179 75.0663C478.549 75.0663 478 74.965 477.531 74.7623C477.072 74.549 476.72 74.261 476.475 73.8983C476.229 73.525 476.107 73.0983 476.107 72.6183C476.107 72.181 476.208 71.7863 476.411 71.4343C476.624 71.0717 476.965 70.7837 477.435 70.5703C477.915 70.3463 478.555 70.2343 479.355 70.2343H482.251V71.0823H479.387C478.576 71.0823 478.011 71.2263 477.691 71.5143C477.381 71.8023 477.227 72.1597 477.227 72.5863C477.227 73.0663 477.413 73.4503 477.787 73.7383C478.16 74.0263 478.683 74.1703 479.355 74.1703C479.995 74.1703 480.544 74.0263 481.003 73.7383C481.472 73.4397 481.813 73.013 482.027 72.4583L482.283 73.2423C482.069 73.797 481.696 74.2397 481.163 74.5703C480.64 74.901 479.979 75.0663 479.179 75.0663ZM496.744 66.5063C497.427 66.5063 498.019 66.6397 498.52 66.9063C499.032 67.1623 499.427 67.557 499.704 68.0903C499.992 68.6237 500.136 69.2957 500.136 70.1063V74.9863H499V70.2183C499 69.333 498.787 68.6663 498.36 68.2183C497.944 67.7597 497.352 67.5303 496.584 67.5303C496.008 67.5303 495.507 67.653 495.08 67.8983C494.664 68.133 494.339 68.4797 494.104 68.9383C493.88 69.3863 493.768 69.9303 493.768 70.5703V74.9863H492.632V70.2183C492.632 69.333 492.419 68.6663 491.992 68.2183C491.565 67.7597 490.968 67.5303 490.2 67.5303C489.635 67.5303 489.139 67.653 488.712 67.8983C488.285 68.133 487.955 68.4797 487.72 68.9383C487.496 69.3863 487.384 69.9303 487.384 70.5703V74.9863H486.248V66.5863H487.336V68.8583L487.16 68.4583C487.416 67.8503 487.827 67.3757 488.392 67.0343C488.968 66.6823 489.645 66.5063 490.424 66.5063C491.245 66.5063 491.944 66.7143 492.52 67.1303C493.096 67.5357 493.469 68.149 493.64 68.9703L493.192 68.7943C493.437 68.1117 493.869 67.5623 494.488 67.1463C495.117 66.7197 495.869 66.5063 496.744 66.5063ZM503.217 74.9863V66.5863H504.305V68.8743L504.193 68.4743C504.427 67.8343 504.822 67.349 505.377 67.0183C505.931 66.677 506.619 66.5063 507.441 66.5063V67.6103C507.398 67.6103 507.355 67.6103 507.313 67.6103C507.27 67.5997 507.227 67.5943 507.185 67.5943C506.299 67.5943 505.606 67.8663 505.105 68.4103C504.603 68.9437 504.353 69.7063 504.353 70.6983V74.9863H503.217ZM512.86 75.0663C512.049 75.0663 511.318 74.885 510.668 74.5223C510.028 74.149 509.521 73.6423 509.148 73.0023C508.774 72.3517 508.588 71.6103 508.588 70.7783C508.588 69.9357 508.774 69.1943 509.148 68.5543C509.521 67.9143 510.028 67.413 510.668 67.0503C511.308 66.6877 512.038 66.5063 512.86 66.5063C513.692 66.5063 514.428 66.6877 515.068 67.0503C515.718 67.413 516.225 67.9143 516.588 68.5543C516.961 69.1943 517.148 69.9357 517.148 70.7783C517.148 71.6103 516.961 72.3517 516.588 73.0023C516.225 73.6423 515.718 74.149 515.068 74.5223C514.417 74.885 513.681 75.0663 512.86 75.0663ZM512.86 74.0583C513.468 74.0583 514.006 73.925 514.476 73.6583C514.945 73.381 515.313 72.997 515.58 72.5063C515.857 72.005 515.996 71.429 515.996 70.7783C515.996 70.117 515.857 69.541 515.58 69.0503C515.313 68.5597 514.945 68.181 514.476 67.9143C514.006 67.637 513.473 67.4983 512.876 67.4983C512.278 67.4983 511.745 67.637 511.276 67.9143C510.806 68.181 510.433 68.5597 510.156 69.0503C509.878 69.541 509.74 70.117 509.74 70.7783C509.74 71.429 509.878 72.005 510.156 72.5063C510.433 72.997 510.806 73.381 511.276 73.6583C511.745 73.925 512.273 74.0583 512.86 74.0583ZM520.944 74.9863L517.776 66.5863H518.864L521.744 74.3783H521.248L524.208 66.5863H525.184L528.112 74.3783H527.616L530.544 66.5863H531.584L528.4 74.9863H527.328L524.512 67.6583H524.848L522.016 74.9863H520.944ZM537.583 66.5063C538.266 66.5063 538.863 66.6397 539.375 66.9063C539.898 67.1623 540.303 67.557 540.591 68.0903C540.89 68.6237 541.039 69.2957 541.039 70.1063V74.9863H539.903V70.2183C539.903 69.333 539.679 68.6663 539.231 68.2183C538.794 67.7597 538.175 67.5303 537.375 67.5303C536.778 67.5303 536.255 67.653 535.807 67.8983C535.37 68.133 535.028 68.4797 534.783 68.9383C534.548 69.3863 534.431 69.9303 534.431 70.5703V74.9863H533.295V66.5863H534.383V68.8903L534.207 68.4583C534.474 67.8503 534.9 67.3757 535.487 67.0343C536.074 66.6823 536.772 66.5063 537.583 66.5063Z" fill="#E7E7E7"/>
</g>
<defs>
<linearGradient id="paint0_linear_1011_3" x1="448" y1="139" x2="448" y2="-7.45752e-05" gradientUnits="userSpaceOnUse">
<stop stop-color="#0F172A"/>
<stop offset="1" stop-color="#0F172A" stop-opacity="0"/>
</linearGradient>
<linearGradient id="paint1_linear_1011_3" x1="448" y1="0" x2="448" y2="139" gradientUnits="userSpaceOnUse">
<stop/>
<stop offset="1" stop-opacity="0"/>
</linearGradient>
<clipPath id="clip0_1011_3">
<rect width="896" height="139" fill="white"/>
</clipPath>
</defs>
</svg>
