<svg width="896" height="73" viewBox="0 0 896 73" fill="none" xmlns="http://www.w3.org/2000/svg">
<g clip-path="url(#clip0_1011_3)">
<path d="M0 72.9999L896 73L896 0L6.38186e-06 -7.83308e-05L0 72.9999Z" fill="url(#paint0_linear_1011_3)"/>
<mask id="mask0_1011_3" style="mask-type:alpha" maskUnits="userSpaceOnUse" x="0" y="0" width="896" height="73">
<path d="M896 0H0V73H896V0Z" fill="url(#paint1_linear_1011_3)"/>
</mask>
<g mask="url(#mask0_1011_3)">
<path d="M32.5001 0V73M64.5001 0V73M96.5001 0V73M128.5 0V73M160.5 0V73M192.5 0V73M224.5 0V73M256.5 0V73M288.5 0V73M320.5 0V73M352.5 0V73M384.5 0V73M416.5 0V73M448.5 0V73M480.5 0V73M512.5 0V73M544.5 0V73M576.5 0V73M608.5 0V73M640.5 0V73M672.5 0V73M704.5 0V73M736.5 0V73M768.5 0V73M800.5 0V73M832.5 0V73M864.5 0V73M0 7.98437H896M0 16.0955H896M0 24.2066H896M0 32.3177H896M0 40.4288H896M0 48.5399H896M0 56.651H896M0 64.7621H896" stroke="white" stroke-opacity="0.04" stroke-dasharray="5 5"/>
</g>
<path d="M358.645 45.184C357.877 45.184 357.141 45.072 356.437 44.848C355.733 44.624 355.162 44.304 354.725 43.888L355.301 43.024C355.695 43.376 356.181 43.6533 356.757 43.856C357.343 44.0693 357.962 44.176 358.613 44.176C359.679 44.176 360.463 43.9253 360.965 43.424C361.466 42.9333 361.717 42.1653 361.717 41.12V39.024L361.877 37.584L361.765 36.144V33.6H362.853V40.976C362.853 42.4267 362.495 43.488 361.781 44.16C361.077 44.8427 360.031 45.184 358.645 45.184ZM358.437 41.68C357.637 41.68 356.917 41.5093 356.277 41.168C355.637 40.816 355.13 40.3307 354.757 39.712C354.394 39.0933 354.213 38.384 354.213 37.584C354.213 36.784 354.394 36.08 354.757 35.472C355.13 34.8533 355.637 34.3733 356.277 34.032C356.917 33.6907 357.637 33.52 358.437 33.52C359.183 33.52 359.855 33.6747 360.453 33.984C361.05 34.2933 361.525 34.752 361.877 35.36C362.229 35.968 362.405 36.7093 362.405 37.584C362.405 38.4587 362.229 39.2 361.877 39.808C361.525 40.416 361.05 40.88 360.453 41.2C359.855 41.52 359.183 41.68 358.437 41.68ZM358.549 40.672C359.167 40.672 359.717 40.544 360.197 40.288C360.677 40.0213 361.055 39.6587 361.333 39.2C361.61 38.7307 361.749 38.192 361.749 37.584C361.749 36.976 361.61 36.4427 361.333 35.984C361.055 35.5253 360.677 35.168 360.197 34.912C359.717 34.6453 359.167 34.512 358.549 34.512C357.941 34.512 357.391 34.6453 356.901 34.912C356.421 35.168 356.042 35.5253 355.765 35.984C355.498 36.4427 355.365 36.976 355.365 37.584C355.365 38.192 355.498 38.7307 355.765 39.2C356.042 39.6587 356.421 40.0213 356.901 40.288C357.391 40.544 357.941 40.672 358.549 40.672ZM366.014 42V33.6H367.15V42H366.014ZM366.59 31.744C366.355 31.744 366.158 31.664 365.998 31.504C365.838 31.344 365.758 31.152 365.758 30.928C365.758 30.704 365.838 30.5173 365.998 30.368C366.158 30.208 366.355 30.128 366.59 30.128C366.824 30.128 367.022 30.2027 367.182 30.352C367.342 30.5013 367.422 30.688 367.422 30.912C367.422 31.1467 367.342 31.344 367.182 31.504C367.032 31.664 366.835 31.744 366.59 31.744ZM372.967 42.08C372.177 42.08 371.569 41.8667 371.143 41.44C370.716 41.0133 370.503 40.4107 370.503 39.632V31.744H371.639V39.568C371.639 40.0587 371.761 40.4373 372.007 40.704C372.263 40.9707 372.625 41.104 373.095 41.104C373.596 41.104 374.012 40.96 374.343 40.672L374.743 41.488C374.519 41.6907 374.247 41.84 373.927 41.936C373.617 42.032 373.297 42.08 372.967 42.08ZM368.999 34.544V33.6H374.199V34.544H368.999ZM381.099 33.52C381.781 33.52 382.379 33.6533 382.891 33.92C383.413 34.176 383.819 34.5707 384.107 35.104C384.405 35.6373 384.555 36.3093 384.555 37.12V42H383.419V37.232C383.419 36.3467 383.195 35.68 382.747 35.232C382.309 34.7733 381.691 34.544 380.891 34.544C380.293 34.544 379.771 34.6667 379.323 34.912C378.885 35.1467 378.544 35.4933 378.299 35.952C378.064 36.4 377.947 36.944 377.947 37.584V42H376.811V30.128H377.947V35.904L377.723 35.472C377.989 34.864 378.416 34.3893 379.003 34.048C379.589 33.696 380.288 33.52 381.099 33.52ZM391.095 42.08C390.38 42.08 389.756 41.9467 389.223 41.68C388.69 41.4133 388.274 41.0133 387.975 40.48C387.687 39.9467 387.543 39.28 387.543 38.48V33.6H388.679V38.352C388.679 39.248 388.898 39.9253 389.335 40.384C389.783 40.832 390.407 41.056 391.207 41.056C391.794 41.056 392.3 40.9387 392.727 40.704C393.164 40.4587 393.495 40.1067 393.719 39.648C393.954 39.1893 394.071 38.64 394.071 38V33.6H395.207V42H394.119V39.696L394.295 40.112C394.028 40.7307 393.612 41.216 393.047 41.568C392.492 41.9093 391.842 42.08 391.095 42.08ZM402.709 42.08C401.973 42.08 401.312 41.9147 400.725 41.584C400.138 41.2427 399.674 40.752 399.333 40.112C398.992 39.472 398.821 38.6987 398.821 37.792C398.821 36.8747 398.992 36.1013 399.333 35.472C399.685 34.832 400.154 34.3467 400.741 34.016C401.328 33.6853 401.984 33.52 402.709 33.52C403.509 33.52 404.224 33.7013 404.853 34.064C405.493 34.416 405.994 34.912 406.357 35.552C406.72 36.192 406.901 36.9387 406.901 37.792C406.901 38.6347 406.72 39.3813 406.357 40.032C405.994 40.672 405.493 41.1733 404.853 41.536C404.224 41.8987 403.509 42.08 402.709 42.08ZM398.373 42V30.128H399.509V36.08L399.349 37.776L399.461 39.472V42H398.373ZM402.629 41.072C403.226 41.072 403.76 40.9387 404.229 40.672C404.698 40.3947 405.072 40.0107 405.349 39.52C405.626 39.0187 405.765 38.4427 405.765 37.792C405.765 37.1307 405.626 36.5547 405.349 36.064C405.072 35.5733 404.698 35.1947 404.229 34.928C403.76 34.6507 403.226 34.512 402.629 34.512C402.032 34.512 401.493 34.6507 401.013 34.928C400.544 35.1947 400.17 35.5733 399.893 36.064C399.626 36.5547 399.493 37.1307 399.493 37.792C399.493 38.4427 399.626 39.0187 399.893 39.52C400.17 40.0107 400.544 40.3947 401.013 40.672C401.493 40.9387 402.032 41.072 402.629 41.072ZM409.094 42.08C408.86 42.08 408.657 41.9947 408.486 41.824C408.326 41.6533 408.246 41.4453 408.246 41.2C408.246 40.944 408.326 40.736 408.486 40.576C408.657 40.416 408.86 40.336 409.094 40.336C409.329 40.336 409.526 40.416 409.686 40.576C409.857 40.736 409.942 40.944 409.942 41.2C409.942 41.4453 409.857 41.6533 409.686 41.824C409.526 41.9947 409.329 42.08 409.094 42.08ZM415.627 42.08C414.795 42.08 414.048 41.8987 413.387 41.536C412.736 41.1627 412.224 40.656 411.851 40.016C411.477 39.3653 411.291 38.624 411.291 37.792C411.291 36.9493 411.477 36.208 411.851 35.568C412.224 34.928 412.736 34.4267 413.387 34.064C414.048 33.7013 414.795 33.52 415.627 33.52C416.341 33.52 416.987 33.6587 417.563 33.936C418.139 34.2133 418.592 34.6293 418.923 35.184L418.075 35.76C417.787 35.3333 417.429 35.0187 417.003 34.816C416.576 34.6133 416.112 34.512 415.611 34.512C415.013 34.512 414.475 34.6507 413.995 34.928C413.515 35.1947 413.136 35.5733 412.859 36.064C412.581 36.5547 412.443 37.1307 412.443 37.792C412.443 38.4533 412.581 39.0293 412.859 39.52C413.136 40.0107 413.515 40.3947 413.995 40.672C414.475 40.9387 415.013 41.072 415.611 41.072C416.112 41.072 416.576 40.9707 417.003 40.768C417.429 40.5653 417.787 40.256 418.075 39.84L418.923 40.416C418.592 40.96 418.139 41.376 417.563 41.664C416.987 41.9413 416.341 42.08 415.627 42.08ZM424.438 42.08C423.627 42.08 422.896 41.8987 422.246 41.536C421.606 41.1627 421.099 40.656 420.726 40.016C420.352 39.3653 420.166 38.624 420.166 37.792C420.166 36.9493 420.352 36.208 420.726 35.568C421.099 34.928 421.606 34.4267 422.246 34.064C422.886 33.7013 423.616 33.52 424.438 33.52C425.27 33.52 426.006 33.7013 426.646 34.064C427.296 34.4267 427.803 34.928 428.166 35.568C428.539 36.208 428.726 36.9493 428.726 37.792C428.726 38.624 428.539 39.3653 428.166 40.016C427.803 40.656 427.296 41.1627 426.646 41.536C425.995 41.8987 425.259 42.08 424.438 42.08ZM424.438 41.072C425.046 41.072 425.584 40.9387 426.054 40.672C426.523 40.3947 426.891 40.0107 427.158 39.52C427.435 39.0187 427.574 38.4427 427.574 37.792C427.574 37.1307 427.435 36.5547 427.158 36.064C426.891 35.5733 426.523 35.1947 426.054 34.928C425.584 34.6507 425.051 34.512 424.454 34.512C423.856 34.512 423.323 34.6507 422.854 34.928C422.384 35.1947 422.011 35.5733 421.734 36.064C421.456 36.5547 421.318 37.1307 421.318 37.792C421.318 38.4427 421.456 39.0187 421.734 39.52C422.011 40.0107 422.384 40.3947 422.854 40.672C423.323 40.9387 423.851 41.072 424.438 41.072ZM441.541 33.52C442.224 33.52 442.816 33.6533 443.317 33.92C443.829 34.176 444.224 34.5707 444.501 35.104C444.789 35.6373 444.933 36.3093 444.933 37.12V42H443.797V37.232C443.797 36.3467 443.584 35.68 443.157 35.232C442.741 34.7733 442.149 34.544 441.381 34.544C440.805 34.544 440.304 34.6667 439.877 34.912C439.461 35.1467 439.136 35.4933 438.901 35.952C438.677 36.4 438.565 36.944 438.565 37.584V42H437.429V37.232C437.429 36.3467 437.216 35.68 436.789 35.232C436.362 34.7733 435.765 34.544 434.997 34.544C434.432 34.544 433.936 34.6667 433.509 34.912C433.082 35.1467 432.752 35.4933 432.517 35.952C432.293 36.4 432.181 36.944 432.181 37.584V42H431.045V33.6H432.133V35.872L431.957 35.472C432.213 34.864 432.624 34.3893 433.189 34.048C433.765 33.696 434.442 33.52 435.221 33.52C436.042 33.52 436.741 33.728 437.317 34.144C437.893 34.5493 438.266 35.1627 438.437 35.984L437.989 35.808C438.234 35.1253 438.666 34.576 439.285 34.16C439.914 33.7333 440.666 33.52 441.541 33.52ZM446.03 43.6L451.31 28.528H452.35L447.07 43.6H446.03ZM453.373 42V30.128H454.509V42H453.373ZM461.142 42.08C460.427 42.08 459.803 41.9467 459.27 41.68C458.737 41.4133 458.321 41.0133 458.022 40.48C457.734 39.9467 457.59 39.28 457.59 38.48V33.6H458.726V38.352C458.726 39.248 458.945 39.9253 459.382 40.384C459.83 40.832 460.454 41.056 461.254 41.056C461.841 41.056 462.347 40.9387 462.774 40.704C463.211 40.4587 463.542 40.1067 463.766 39.648C464.001 39.1893 464.118 38.64 464.118 38V33.6H465.254V42H464.166V39.696L464.342 40.112C464.075 40.7307 463.659 41.216 463.094 41.568C462.539 41.9093 461.889 42.08 461.142 42.08ZM467.14 42L470.692 37.392L470.676 37.952L467.3 33.6H468.58L471.348 37.2L470.868 37.184L473.636 33.6H474.884L471.476 38L471.492 37.392L475.076 42H473.78L470.852 38.16L471.3 38.224L468.42 42H467.14ZM482.075 42V40.144L482.027 39.84V36.736C482.027 36.0213 481.824 35.472 481.419 35.088C481.024 34.704 480.432 34.512 479.643 34.512C479.099 34.512 478.581 34.6027 478.091 34.784C477.6 34.9653 477.184 35.2053 476.843 35.504L476.331 34.656C476.757 34.2933 477.269 34.016 477.867 33.824C478.464 33.6213 479.093 33.52 479.755 33.52C480.843 33.52 481.68 33.792 482.267 34.336C482.864 34.8693 483.163 35.6853 483.163 36.784V42H482.075ZM479.179 42.08C478.549 42.08 478 41.9787 477.531 41.776C477.072 41.5627 476.72 41.2747 476.475 40.912C476.229 40.5387 476.107 40.112 476.107 39.632C476.107 39.1947 476.208 38.8 476.411 38.448C476.624 38.0853 476.965 37.7973 477.435 37.584C477.915 37.36 478.555 37.248 479.355 37.248H482.251V38.096H479.387C478.576 38.096 478.011 38.24 477.691 38.528C477.381 38.816 477.227 39.1733 477.227 39.6C477.227 40.08 477.413 40.464 477.787 40.752C478.16 41.04 478.683 41.184 479.355 41.184C479.995 41.184 480.544 41.04 481.003 40.752C481.472 40.4533 481.813 40.0267 482.027 39.472L482.283 40.256C482.069 40.8107 481.696 41.2533 481.163 41.584C480.64 41.9147 479.979 42.08 479.179 42.08ZM496.744 33.52C497.427 33.52 498.019 33.6533 498.52 33.92C499.032 34.176 499.427 34.5707 499.704 35.104C499.992 35.6373 500.136 36.3093 500.136 37.12V42H499V37.232C499 36.3467 498.787 35.68 498.36 35.232C497.944 34.7733 497.352 34.544 496.584 34.544C496.008 34.544 495.507 34.6667 495.08 34.912C494.664 35.1467 494.339 35.4933 494.104 35.952C493.88 36.4 493.768 36.944 493.768 37.584V42H492.632V37.232C492.632 36.3467 492.419 35.68 491.992 35.232C491.565 34.7733 490.968 34.544 490.2 34.544C489.635 34.544 489.139 34.6667 488.712 34.912C488.285 35.1467 487.955 35.4933 487.72 35.952C487.496 36.4 487.384 36.944 487.384 37.584V42H486.248V33.6H487.336V35.872L487.16 35.472C487.416 34.864 487.827 34.3893 488.392 34.048C488.968 33.696 489.645 33.52 490.424 33.52C491.245 33.52 491.944 33.728 492.52 34.144C493.096 34.5493 493.469 35.1627 493.64 35.984L493.192 35.808C493.437 35.1253 493.869 34.576 494.488 34.16C495.117 33.7333 495.869 33.52 496.744 33.52ZM503.217 42V33.6H504.305V35.888L504.193 35.488C504.427 34.848 504.822 34.3627 505.377 34.032C505.931 33.6907 506.619 33.52 507.441 33.52V34.624C507.398 34.624 507.355 34.624 507.313 34.624C507.27 34.6133 507.227 34.608 507.185 34.608C506.299 34.608 505.606 34.88 505.105 35.424C504.603 35.9573 504.353 36.72 504.353 37.712V42H503.217ZM512.86 42.08C512.049 42.08 511.318 41.8987 510.668 41.536C510.028 41.1627 509.521 40.656 509.148 40.016C508.774 39.3653 508.588 38.624 508.588 37.792C508.588 36.9493 508.774 36.208 509.148 35.568C509.521 34.928 510.028 34.4267 510.668 34.064C511.308 33.7013 512.038 33.52 512.86 33.52C513.692 33.52 514.428 33.7013 515.068 34.064C515.718 34.4267 516.225 34.928 516.588 35.568C516.961 36.208 517.148 36.9493 517.148 37.792C517.148 38.624 516.961 39.3653 516.588 40.016C516.225 40.656 515.718 41.1627 515.068 41.536C514.417 41.8987 513.681 42.08 512.86 42.08ZM512.86 41.072C513.468 41.072 514.006 40.9387 514.476 40.672C514.945 40.3947 515.313 40.0107 515.58 39.52C515.857 39.0187 515.996 38.4427 515.996 37.792C515.996 37.1307 515.857 36.5547 515.58 36.064C515.313 35.5733 514.945 35.1947 514.476 34.928C514.006 34.6507 513.473 34.512 512.876 34.512C512.278 34.512 511.745 34.6507 511.276 34.928C510.806 35.1947 510.433 35.5733 510.156 36.064C509.878 36.5547 509.74 37.1307 509.74 37.792C509.74 38.4427 509.878 39.0187 510.156 39.52C510.433 40.0107 510.806 40.3947 511.276 40.672C511.745 40.9387 512.273 41.072 512.86 41.072ZM520.944 42L517.776 33.6H518.864L521.744 41.392H521.248L524.208 33.6H525.184L528.112 41.392H527.616L530.544 33.6H531.584L528.4 42H527.328L524.512 34.672H524.848L522.016 42H520.944ZM537.583 33.52C538.266 33.52 538.863 33.6533 539.375 33.92C539.898 34.176 540.303 34.5707 540.591 35.104C540.89 35.6373 541.039 36.3093 541.039 37.12V42H539.903V37.232C539.903 36.3467 539.679 35.68 539.231 35.232C538.794 34.7733 538.175 34.544 537.375 34.544C536.778 34.544 536.255 34.6667 535.807 34.912C535.37 35.1467 535.028 35.4933 534.783 35.952C534.548 36.4 534.431 36.944 534.431 37.584V42H533.295V33.6H534.383V35.904L534.207 35.472C534.474 34.864 534.9 34.3893 535.487 34.048C536.074 33.696 536.772 33.52 537.583 33.52Z" fill="#E7E7E7"/>
</g>
<defs>
<linearGradient id="paint0_linear_1011_3" x1="448" y1="73" x2="448" y2="-3.91654e-05" gradientUnits="userSpaceOnUse">
<stop stop-color="#0F172A"/>
<stop offset="1" stop-color="#0F172A" stop-opacity="0"/>
</linearGradient>
<linearGradient id="paint1_linear_1011_3" x1="448" y1="0" x2="448" y2="73" gradientUnits="userSpaceOnUse">
<stop/>
<stop offset="1" stop-opacity="0"/>
</linearGradient>
<clipPath id="clip0_1011_3">
<rect width="896" height="73" fill="white"/>
</clipPath>
</defs>
</svg>
