<svg id="Layer_1" data-name="Layer 1" xmlns="http://www.w3.org/2000/svg" viewBox="0 0 1904.98 456.48"><defs><style>.cls-1{fill:#fff;}</style></defs><title>ENIGMACAMP-LOGO-white</title><path class="cls-1" d="M318.59,332.49l14.05-14.05c14-14,32.95-20.63,52.73-20.63a69.7,69.7,0,0,0,56.74-28.09c18.63-24.36,18.63-59.32,0-83.68A69.72,69.72,0,0,0,385.34,158c-19.78.28-38.69-6.59-52.73-20.64l-14.05-14c-14-14-20.63-33-20.63-52.73a70.11,70.11,0,1,0-71.14,69.07h1.79c19.76-.33,38.76,6.52,52.76,20.59L295.09,174c14.05,14,21.21,33.53,21.21,53.59v.58c0,20.06-6.88,39.26-21.21,53.59L281.91,295c-14,14-33.57,21.23-53.57,21.23h-.57c-20.06,0-39.26-6.88-53.59-21.21L160.4,281.18c-14-14.05-20.63-33-20.63-52.73A69.91,69.91,0,1,0,69,297.51H70.7c19.77-.28,38.69,6.59,52.73,20.64l14.33,14.33c14,14,20.63,32.95,20.63,52.73A69.77,69.77,0,0,0,186.48,442c24.36,18.63,59.32,18.63,83.68,0a69.73,69.73,0,0,0,28.09-56.77C298,365.44,304.55,346.24,318.59,332.49Z" transform="translate(0.05 0.56)"/><path class="cls-1" d="M607.34,298.6H495.65V149.42H607.34V176.7H523.57V211h80.77v26.17H523.57v33.67h83.77Z" transform="translate(0.05 0.56)"/><path class="cls-1" d="M731.55,149.18h28.13V298.6H742.21v.21L663.79,198V298.6H635.66V149.42h22.8l73.09,92.49Z" transform="translate(0.05 0.56)"/><path class="cls-1" d="M785.68,298.6V149.42H813.6V298.6Z" transform="translate(0.05 0.56)"/><path class="cls-1" d="M950.84,185.86c-10-9.59-24.93-14.91-37.93-14.91-32,0-51.36,24.29-51.36,55,0,24.5,14.28,49.86,51.36,49.86,11.72,0,22-2.55,33.67-11.93V237.44H908.43V212.29h63.91v62.89C957.64,292,939.1,302,912.89,302,856.84,302,834,265.17,834,226c0-42,26.21-80.77,78.85-80.77a78.77,78.77,0,0,1,55.4,22.8Z" transform="translate(0.05 0.56)"/><path class="cls-1" d="M1125.34,190.55l-48.59,64.79h-5.54l-47.52-65V298.81H995.56V149.64H1028l46.67,64.14,46.72-64.14h32.18V298.81h-28.18Z" transform="translate(0.05 0.56)"/><path class="cls-1" d="M1285.84,270.47h-78l-12.78,28.13h-30.48l66.92-149.18h30.68L1329.1,298.6h-30.69Zm-39-89.72-27.7,63.5h55.41Z" transform="translate(0.05 0.56)"/><path class="cls-1" d="M1448.51,277.93a76.86,76.86,0,0,1-54.35,22.37c-50.29,0-76.5-35.16-76.71-75.44-.43-39.85,25.57-77.14,76.71-77.14a76.86,76.86,0,0,1,54.35,22.37l-7.89,6.82a65.3,65.3,0,0,0-46.46-19c-43.47,0-65.85,30.68-65.63,66.49.42,35,22.59,65.21,65.63,65.21a66.72,66.72,0,0,0,46.67-19Z" transform="translate(0.05 0.56)"/><path class="cls-1" d="M1587.45,298.6,1571,261.94H1482l-16.2,36.66H1453.4l66.94-149.18h12.57l66.92,149.18Zm-20.89-47.31L1526.5,160.5l-40.07,90.79Z" transform="translate(0.05 0.56)"/><path class="cls-1" d="M1746.84,166.05l-57.11,87.37h-3.84l-57.55-87.37V298.6h-11.51V149.42h13.64l57.11,87,56.47-87h14.07V298.6h-11.3Z" transform="translate(0.05 0.56)"/><path class="cls-1" d="M1802.46,247V298.6H1791V149.42h65.39c64.79,0,64.79,97.6,0,97.6Zm0-86.94v76.5h53.88c49.66,0,49.66-76.5,0-76.5Z" transform="translate(0.05 0.56)"/><path class="cls-1" d="M1342.81,413.57V355.39h4.4v58.18Z" transform="translate(0.05 0.56)"/><path class="cls-1" d="M1379.21,359.47h-21v-4h46.55v4h-21v54.1h-4.49Z" transform="translate(0.05 0.56)"/><path class="cls-1" d="M1479.11,371.27c0,6-3.66,10.64-9.48,12.46,7.32,2,11.47,7.9,11.47,14.63,0,12-11.13,15.21-21.11,15.21h-23.85V355.39H1460C1469.8,355.39,1479.11,360.18,1479.11,371.27Zm-38.48,10.47h19.94c7,0,14.3-2.16,14.3-10.47,0-8.48-7.65-12-14.88-12h-19.36Zm0,27.51H1460c7.32,0,16.71-1.74,16.71-11-.08-9.06-8.31-12.3-16.13-12.3h-19.94Z" transform="translate(0.05 0.56)"/><path class="cls-1" d="M1548.92,384.57c-.08,15.29-9.81,30-29.34,30s-29.34-14.79-29.34-30.17c0-15.63,9.72-29.92,29.34-29.92S1549,368.86,1548.92,384.57Zm-54.28-.09c.09,13.13,8.4,25.93,24.94,25.93s25-12.8,25-25.93c0-13.46-8.31-25.85-25-25.85s-25,12.14-24.94,25.85Z" transform="translate(0.05 0.56)"/><path class="cls-1" d="M1615.74,384.57c-.09,15.29-9.81,30-29.34,30s-29.34-14.79-29.34-30.17c0-15.63,9.72-29.92,29.34-29.92S1615.82,368.86,1615.74,384.57Zm-54.28-.09c.09,13.13,8.4,25.93,24.94,25.93s25-12.8,25-25.93c0-13.46-8.31-25.85-25-25.85s-25.06,12.14-24.94,25.85Z" transform="translate(0.05 0.56)"/><path class="cls-1" d="M1639.5,359.47h-21v-4H1665v4h-21v54.1h-4.49Z" transform="translate(0.05 0.56)"/><path class="cls-1" d="M1721.53,405.51a30,30,0,0,1-21.19,8.73c-19.62,0-29.84-13.72-29.92-29.42s10-30.09,29.92-30.09a30,30,0,0,1,21.19,8.72l-3.07,2.66a25.51,25.51,0,0,0-18.12-7.39c-17,0-25.68,12-25.6,25.93.17,13.63,8.81,25.43,25.6,25.43a26,26,0,0,0,18.2-7.4Z" transform="translate(0.05 0.56)"/><path class="cls-1" d="M1775.72,413.57l-6.38-14.29H1734.6l-6.32,14.29h-4.82l26.1-58.18h4.9l26.1,58.18Zm-8.15-18.45L1752,359.71l-15.61,35.41Z" transform="translate(0.05 0.56)"/><path class="cls-1" d="M1837.88,361.88,1815.61,396h-1.5l-22.44-34.07v51.69h-4.49V355.39h5.32l22.28,33.91,22-33.91h5.56v58.18h-4.41Z" transform="translate(0.05 0.56)"/><path class="cls-1" d="M1859.57,393.46v20.11h-4.49V355.39h25.52c25.27,0,25.27,38.07,0,38.07Zm0-33.91v29.84h21c19.36,0,19.36-29.84,0-29.84Z" transform="translate(0.05 0.56)"/></svg>