<svg width="896" height="288" viewBox="0 0 896 288" fill="none" xmlns="http://www.w3.org/2000/svg">
<g clip-path="url(#clip0_517_4)">
<mask id="mask0_517_4" style="mask-type:luminance" maskUnits="userSpaceOnUse" x="0" y="0" width="896" height="288">
<path d="M0 32C0 14.3269 14.3269 0 32 0H864C881.673 0 896 14.3269 896 32V288H0V32Z" fill="white"/>
</mask>
<g mask="url(#mask0_517_4)">
<path d="M896 0H0V288H896V0Z" fill="url(#paint0_linear_517_4)"/>
<mask id="mask1_517_4" style="mask-type:alpha" maskUnits="userSpaceOnUse" x="0" y="0" width="896" height="288">
<path d="M896 0H0V288H896V0Z" fill="url(#paint1_linear_517_4)"/>
</mask>
<g mask="url(#mask1_517_4)">
<path d="M32.5001 0V288M64.5001 0V288M96.5001 0V288M128.5 0V288M160.5 0V288M192.5 0V288M224.5 0V288M256.5 0V288M288.5 0V288M320.5 0V288M352.5 0V288M384.5 0V288M416.5 0V288M448.5 0V288M480.5 0V288M512.5 0V288M544.5 0V288M576.5 0V288M608.5 0V288M640.5 0V288M672.5 0V288M704.5 0V288M736.5 0V288M768.5 0V288M800.5 0V288M832.5 0V288M864.5 0V288M0 31.5H896M0 63.5H896M0 95.5H896M0 127.5H896M0 159.5H896M0 191.5H896M0 223.5H896M0 255.5H896" stroke="white" stroke-opacity="0.04" stroke-dasharray="5 5"/>
</g>
<path d="M254.281 144V99.2H264.649V144H254.281ZM272.849 117.76L277.073 102.4L278.481 108.224C276.646 108.224 275.131 107.691 273.937 106.624C272.785 105.515 272.209 104.021 272.209 102.144C272.209 100.309 272.806 98.8373 274.001 97.728C275.195 96.576 276.667 96 278.417 96C280.209 96 281.681 96.576 282.833 97.728C283.985 98.8373 284.561 100.309 284.561 102.144C284.561 102.699 284.518 103.253 284.433 103.808C284.39 104.32 284.241 104.939 283.985 105.664C283.771 106.389 283.409 107.349 282.897 108.544L279.185 117.76H272.849ZM335.423 109.056C338.153 109.056 340.564 109.611 342.655 110.72C344.788 111.787 346.452 113.451 347.647 115.712C348.884 117.931 349.503 120.789 349.503 124.288V144H339.519V125.824C339.519 123.051 338.943 121.003 337.791 119.68C336.639 118.357 335.017 117.696 332.927 117.696C331.476 117.696 330.175 118.037 329.023 118.72C327.871 119.36 326.975 120.341 326.335 121.664C325.695 122.987 325.375 124.672 325.375 126.72V144H315.391V125.824C315.391 123.051 314.815 121.003 313.663 119.68C312.553 118.357 310.953 117.696 308.863 117.696C307.412 117.696 306.111 118.037 304.959 118.72C303.807 119.36 302.911 120.341 302.271 121.664C301.631 122.987 301.311 124.672 301.311 126.72V144H291.327V109.568H300.863V118.976L299.071 116.224C300.265 113.877 301.951 112.107 304.127 110.912C306.345 109.675 308.863 109.056 311.679 109.056C314.836 109.056 317.588 109.867 319.935 111.488C322.324 113.067 323.903 115.499 324.671 118.784L321.151 117.824C322.303 115.136 324.137 113.003 326.655 111.424C329.215 109.845 332.137 109.056 335.423 109.056ZM386.817 117.248H408.385V125.312H386.817V117.248ZM387.585 135.68H411.969V144H377.281V99.2H411.137V107.52H387.585V135.68ZM419.514 144V96.512H429.498V144H419.514ZM437.484 129.984V121.984H455.596V129.984H437.484ZM456.768 144L476.736 99.2H486.976L507.008 144H496.128L479.744 104.448H483.84L467.392 144H456.768ZM466.752 134.4L469.504 126.528H492.544L495.36 134.4H466.752ZM531.304 144.512C528.274 144.512 525.672 143.872 523.496 142.592C521.32 141.312 519.656 139.371 518.504 136.768C517.352 134.123 516.776 130.795 516.776 126.784C516.776 122.731 517.373 119.403 518.568 116.8C519.805 114.197 521.512 112.256 523.688 110.976C525.864 109.696 528.402 109.056 531.304 109.056C534.546 109.056 537.448 109.781 540.008 111.232C542.61 112.683 544.658 114.731 546.152 117.376C547.688 120.021 548.456 123.157 548.456 126.784C548.456 130.368 547.688 133.483 546.152 136.128C544.658 138.773 542.61 140.843 540.008 142.336C537.448 143.787 534.546 144.512 531.304 144.512ZM510.952 144V96.512H520.936V116.544L520.296 126.72L520.488 136.96V144H510.952ZM529.576 136.32C531.24 136.32 532.712 135.936 533.992 135.168C535.314 134.4 536.36 133.312 537.128 131.904C537.938 130.453 538.344 128.747 538.344 126.784C538.344 124.779 537.938 123.072 537.128 121.664C536.36 120.256 535.314 119.168 533.992 118.4C532.712 117.632 531.24 117.248 529.576 117.248C527.912 117.248 526.418 117.632 525.096 118.4C523.773 119.168 522.728 120.256 521.96 121.664C521.192 123.072 520.808 124.779 520.808 126.784C520.808 128.747 521.192 130.453 521.96 131.904C522.728 133.312 523.773 134.4 525.096 135.168C526.418 135.936 527.912 136.32 529.576 136.32ZM555.139 144V109.568H564.675V119.296L563.331 116.48C564.355 114.048 565.998 112.213 568.259 110.976C570.521 109.696 573.273 109.056 576.515 109.056V118.272C576.089 118.229 575.705 118.208 575.363 118.208C575.022 118.165 574.659 118.144 574.275 118.144C571.545 118.144 569.326 118.933 567.619 120.512C565.955 122.048 565.123 124.459 565.123 127.744V144H555.139ZM598.523 144.512C594.854 144.512 591.59 143.744 588.731 142.208C585.915 140.672 583.675 138.581 582.011 135.936C580.39 133.248 579.579 130.197 579.579 126.784C579.579 123.328 580.39 120.277 582.011 117.632C583.675 114.944 585.915 112.853 588.731 111.36C591.59 109.824 594.854 109.056 598.523 109.056C602.15 109.056 605.393 109.824 608.251 111.36C611.11 112.853 613.35 114.923 614.971 117.568C616.593 120.213 617.403 123.285 617.403 126.784C617.403 130.197 616.593 133.248 614.971 135.936C613.35 138.581 611.11 140.672 608.251 142.208C605.393 143.744 602.15 144.512 598.523 144.512ZM598.523 136.32C600.187 136.32 601.681 135.936 603.003 135.168C604.326 134.4 605.371 133.312 606.139 131.904C606.907 130.453 607.291 128.747 607.291 126.784C607.291 124.779 606.907 123.072 606.139 121.664C605.371 120.256 604.326 119.168 603.003 118.4C601.681 117.632 600.187 117.248 598.523 117.248C596.859 117.248 595.366 117.632 594.043 118.4C592.721 119.168 591.654 120.256 590.843 121.664C590.075 123.072 589.691 124.779 589.691 126.784C589.691 128.747 590.075 130.453 590.843 131.904C591.654 133.312 592.721 134.4 594.043 135.168C595.366 135.936 596.859 136.32 598.523 136.32ZM624.077 144V109.568H633.613V119.296L632.269 116.48C633.293 114.048 634.935 112.213 637.197 110.976C639.458 109.696 642.21 109.056 645.453 109.056V118.272C645.026 118.229 644.642 118.208 644.301 118.208C643.959 118.165 643.597 118.144 643.213 118.144C640.482 118.144 638.263 118.933 636.557 120.512C634.893 122.048 634.061 124.459 634.061 127.744V144H624.077Z" fill="white"/>
<path d="M412.18 196.24C411.06 196.24 409.987 196.093 408.96 195.8C407.933 195.493 407.107 195.1 406.48 194.62L407.58 192.18C408.18 192.607 408.887 192.96 409.7 193.24C410.527 193.507 411.36 193.64 412.2 193.64C412.84 193.64 413.353 193.58 413.74 193.46C414.14 193.327 414.433 193.147 414.62 192.92C414.807 192.693 414.9 192.433 414.9 192.14C414.9 191.767 414.753 191.473 414.46 191.26C414.167 191.033 413.78 190.853 413.3 190.72C412.82 190.573 412.287 190.44 411.7 190.32C411.127 190.187 410.547 190.027 409.96 189.84C409.387 189.653 408.86 189.413 408.38 189.12C407.9 188.827 407.507 188.44 407.2 187.96C406.907 187.48 406.76 186.867 406.76 186.12C406.76 185.32 406.973 184.593 407.4 183.94C407.84 183.273 408.493 182.747 409.36 182.36C410.24 181.96 411.34 181.76 412.66 181.76C413.54 181.76 414.407 181.867 415.26 182.08C416.113 182.28 416.867 182.587 417.52 183L416.52 185.46C415.867 185.087 415.213 184.813 414.56 184.64C413.907 184.453 413.267 184.36 412.64 184.36C412.013 184.36 411.5 184.433 411.1 184.58C410.7 184.727 410.413 184.92 410.24 185.16C410.067 185.387 409.98 185.653 409.98 185.96C409.98 186.32 410.127 186.613 410.42 186.84C410.713 187.053 411.1 187.227 411.58 187.36C412.06 187.493 412.587 187.627 413.16 187.76C413.747 187.893 414.327 188.047 414.9 188.22C415.487 188.393 416.02 188.627 416.5 188.92C416.98 189.213 417.367 189.6 417.66 190.08C417.967 190.56 418.12 191.167 418.12 191.9C418.12 192.687 417.9 193.407 417.46 194.06C417.02 194.713 416.36 195.24 415.48 195.64C414.613 196.04 413.513 196.24 412.18 196.24ZM424.514 196.16C423.247 196.16 422.26 195.84 421.554 195.2C420.847 194.547 420.494 193.58 420.494 192.3V182.86H423.614V192.26C423.614 192.713 423.734 193.067 423.974 193.32C424.214 193.56 424.54 193.68 424.954 193.68C425.447 193.68 425.867 193.547 426.214 193.28L427.054 195.48C426.734 195.707 426.347 195.88 425.894 196C425.454 196.107 424.994 196.16 424.514 196.16ZM418.834 187.88V185.48H426.294V187.88H418.834ZM433.345 196.16C432.452 196.16 431.652 195.987 430.945 195.64C430.252 195.293 429.712 194.767 429.325 194.06C428.939 193.34 428.745 192.427 428.745 191.32V185.24H431.865V190.86C431.865 191.753 432.052 192.413 432.425 192.84C432.812 193.253 433.352 193.46 434.045 193.46C434.525 193.46 434.952 193.36 435.325 193.16C435.699 192.947 435.992 192.627 436.205 192.2C436.419 191.76 436.525 191.213 436.525 190.56V185.24H439.645V196H436.685V193.04L437.225 193.9C436.865 194.647 436.332 195.213 435.625 195.6C434.932 195.973 434.172 196.16 433.345 196.16ZM447.156 196.16C446.142 196.16 445.229 195.933 444.416 195.48C443.602 195.013 442.956 194.367 442.476 193.54C442.009 192.713 441.776 191.74 441.776 190.62C441.776 189.487 442.009 188.507 442.476 187.68C442.956 186.853 443.602 186.213 444.416 185.76C445.229 185.307 446.142 185.08 447.156 185.08C448.062 185.08 448.856 185.28 449.536 185.68C450.216 186.08 450.742 186.687 451.116 187.5C451.489 188.313 451.676 189.353 451.676 190.62C451.676 191.873 451.496 192.913 451.136 193.74C450.776 194.553 450.256 195.16 449.576 195.56C448.909 195.96 448.102 196.16 447.156 196.16ZM447.696 193.6C448.202 193.6 448.662 193.48 449.076 193.24C449.489 193 449.816 192.66 450.056 192.22C450.309 191.767 450.436 191.233 450.436 190.62C450.436 189.993 450.309 189.46 450.056 189.02C449.816 188.58 449.489 188.24 449.076 188C448.662 187.76 448.202 187.64 447.696 187.64C447.176 187.64 446.709 187.76 446.296 188C445.882 188.24 445.549 188.58 445.296 189.02C445.056 189.46 444.936 189.993 444.936 190.62C444.936 191.233 445.056 191.767 445.296 192.22C445.549 192.66 445.882 193 446.296 193.24C446.709 193.48 447.176 193.6 447.696 193.6ZM450.516 196V193.8L450.576 190.6L450.376 187.42V181.16H453.496V196H450.516ZM461.723 196.16C460.497 196.16 459.417 195.92 458.483 195.44C457.563 194.96 456.85 194.307 456.343 193.48C455.837 192.64 455.583 191.687 455.583 190.62C455.583 189.54 455.83 188.587 456.323 187.76C456.83 186.92 457.517 186.267 458.383 185.8C459.25 185.32 460.23 185.08 461.323 185.08C462.377 185.08 463.323 185.307 464.163 185.76C465.017 186.2 465.69 186.84 466.183 187.68C466.677 188.507 466.923 189.5 466.923 190.66C466.923 190.78 466.917 190.92 466.903 191.08C466.89 191.227 466.877 191.367 466.863 191.5H458.123V189.68H465.223L464.023 190.22C464.023 189.66 463.91 189.173 463.683 188.76C463.457 188.347 463.143 188.027 462.743 187.8C462.343 187.56 461.877 187.44 461.343 187.44C460.81 187.44 460.337 187.56 459.923 187.8C459.523 188.027 459.21 188.353 458.983 188.78C458.757 189.193 458.643 189.687 458.643 190.26V190.74C458.643 191.327 458.77 191.847 459.023 192.3C459.29 192.74 459.657 193.08 460.123 193.32C460.603 193.547 461.163 193.66 461.803 193.66C462.377 193.66 462.877 193.573 463.303 193.4C463.743 193.227 464.143 192.967 464.503 192.62L466.163 194.42C465.67 194.98 465.05 195.413 464.303 195.72C463.557 196.013 462.697 196.16 461.723 196.16ZM475.541 185.08C476.394 185.08 477.154 185.253 477.821 185.6C478.501 185.933 479.034 186.453 479.421 187.16C479.807 187.853 480.001 188.747 480.001 189.84V196H476.881V190.32C476.881 189.453 476.687 188.813 476.301 188.4C475.927 187.987 475.394 187.78 474.701 187.78C474.207 187.78 473.761 187.887 473.361 188.1C472.974 188.3 472.667 188.613 472.441 189.04C472.227 189.467 472.121 190.013 472.121 190.68V196H469.001V185.24H471.981V188.22L471.421 187.32C471.807 186.6 472.361 186.047 473.081 185.66C473.801 185.273 474.621 185.08 475.541 185.08ZM487.229 196.16C485.962 196.16 484.975 195.84 484.269 195.2C483.562 194.547 483.209 193.58 483.209 192.3V182.86H486.329V192.26C486.329 192.713 486.449 193.067 486.689 193.32C486.929 193.56 487.255 193.68 487.669 193.68C488.162 193.68 488.582 193.547 488.929 193.28L489.769 195.48C489.449 195.707 489.062 195.88 488.609 196C488.169 196.107 487.709 196.16 487.229 196.16ZM481.549 187.88V185.48H489.009V187.88H481.549Z" fill="white"/>
</g>
</g>
<defs>
<linearGradient id="paint0_linear_517_4" x1="448" y1="0" x2="448" y2="288" gradientUnits="userSpaceOnUse">
<stop stop-color="#0F172A"/>
<stop offset="1" stop-color="#0F172A" stop-opacity="0"/>
</linearGradient>
<linearGradient id="paint1_linear_517_4" x1="448" y1="0" x2="448" y2="288" gradientUnits="userSpaceOnUse">
<stop/>
<stop offset="1" stop-opacity="0"/>
</linearGradient>
<clipPath id="clip0_517_4">
<rect width="896" height="288" fill="white"/>
</clipPath>
</defs>
</svg>
