<svg width="896" height="288" viewBox="0 0 896 288" fill="none" xmlns="http://www.w3.org/2000/svg">
<g clip-path="url(#clip0_517_4)">
<mask id="mask0_517_4" style="mask-type:luminance" maskUnits="userSpaceOnUse" x="0" y="0" width="896" height="288">
<path d="M0 32C0 14.3269 14.3269 0 32 0H864C881.673 0 896 14.3269 896 32V288H0V32Z" fill="white"/>
</mask>
<g mask="url(#mask0_517_4)">
<path d="M896 0H0V288H896V0Z" fill="url(#paint0_linear_517_4)"/>
<mask id="mask1_517_4" style="mask-type:alpha" maskUnits="userSpaceOnUse" x="0" y="0" width="896" height="288">
<path d="M896 0H0V288H896V0Z" fill="url(#paint1_linear_517_4)"/>
</mask>
<g mask="url(#mask1_517_4)">
<path d="M32.5001 0V288M64.5001 0V288M96.5001 0V288M128.5 0V288M160.5 0V288M192.5 0V288M224.5 0V288M256.5 0V288M288.5 0V288M320.5 0V288M352.5 0V288M384.5 0V288M416.5 0V288M448.5 0V288M480.5 0V288M512.5 0V288M544.5 0V288M576.5 0V288M608.5 0V288M640.5 0V288M672.5 0V288M704.5 0V288M736.5 0V288M768.5 0V288M800.5 0V288M832.5 0V288M864.5 0V288M0 31.5H896M0 63.5H896M0 95.5H896M0 127.5H896M0 159.5H896M0 191.5H896M0 223.5H896M0 255.5H896" stroke="white" stroke-opacity="0.04" stroke-dasharray="5 5"/>
</g>
<path d="M254.281 144V99.2H264.649V144H254.281ZM272.849 117.76L277.073 102.4L278.481 108.224C276.646 108.224 275.131 107.691 273.937 106.624C272.785 105.515 272.209 104.021 272.209 102.144C272.209 100.309 272.806 98.8373 274.001 97.728C275.195 96.576 276.667 96 278.417 96C280.209 96 281.681 96.576 282.833 97.728C283.985 98.8373 284.561 100.309 284.561 102.144C284.561 102.699 284.518 103.253 284.433 103.808C284.39 104.32 284.241 104.939 283.985 105.664C283.771 106.389 283.409 107.349 282.897 108.544L279.185 117.76H272.849ZM335.423 109.056C338.153 109.056 340.564 109.611 342.655 110.72C344.788 111.787 346.452 113.451 347.647 115.712C348.884 117.931 349.503 120.789 349.503 124.288V144H339.519V125.824C339.519 123.051 338.943 121.003 337.791 119.68C336.639 118.357 335.017 117.696 332.927 117.696C331.476 117.696 330.175 118.037 329.023 118.72C327.871 119.36 326.975 120.341 326.335 121.664C325.695 122.987 325.375 124.672 325.375 126.72V144H315.391V125.824C315.391 123.051 314.815 121.003 313.663 119.68C312.553 118.357 310.953 117.696 308.863 117.696C307.412 117.696 306.111 118.037 304.959 118.72C303.807 119.36 302.911 120.341 302.271 121.664C301.631 122.987 301.311 124.672 301.311 126.72V144H291.327V109.568H300.863V118.976L299.071 116.224C300.265 113.877 301.951 112.107 304.127 110.912C306.345 109.675 308.863 109.056 311.679 109.056C314.836 109.056 317.588 109.867 319.935 111.488C322.324 113.067 323.903 115.499 324.671 118.784L321.151 117.824C322.303 115.136 324.137 113.003 326.655 111.424C329.215 109.845 332.137 109.056 335.423 109.056ZM386.817 117.248H408.385V125.312H386.817V117.248ZM387.585 135.68H411.969V144H377.281V99.2H411.137V107.52H387.585V135.68ZM419.514 144V96.512H429.498V144H419.514ZM437.484 129.984V121.984H455.596V129.984H437.484ZM456.768 144L476.736 99.2H486.976L507.008 144H496.128L479.744 104.448H483.84L467.392 144H456.768ZM466.752 134.4L469.504 126.528H492.544L495.36 134.4H466.752ZM531.304 144.512C528.274 144.512 525.672 143.872 523.496 142.592C521.32 141.312 519.656 139.371 518.504 136.768C517.352 134.123 516.776 130.795 516.776 126.784C516.776 122.731 517.373 119.403 518.568 116.8C519.805 114.197 521.512 112.256 523.688 110.976C525.864 109.696 528.402 109.056 531.304 109.056C534.546 109.056 537.448 109.781 540.008 111.232C542.61 112.683 544.658 114.731 546.152 117.376C547.688 120.021 548.456 123.157 548.456 126.784C548.456 130.368 547.688 133.483 546.152 136.128C544.658 138.773 542.61 140.843 540.008 142.336C537.448 143.787 534.546 144.512 531.304 144.512ZM510.952 144V96.512H520.936V116.544L520.296 126.72L520.488 136.96V144H510.952ZM529.576 136.32C531.24 136.32 532.712 135.936 533.992 135.168C535.314 134.4 536.36 133.312 537.128 131.904C537.938 130.453 538.344 128.747 538.344 126.784C538.344 124.779 537.938 123.072 537.128 121.664C536.36 120.256 535.314 119.168 533.992 118.4C532.712 117.632 531.24 117.248 529.576 117.248C527.912 117.248 526.418 117.632 525.096 118.4C523.773 119.168 522.728 120.256 521.96 121.664C521.192 123.072 520.808 124.779 520.808 126.784C520.808 128.747 521.192 130.453 521.96 131.904C522.728 133.312 523.773 134.4 525.096 135.168C526.418 135.936 527.912 136.32 529.576 136.32ZM555.139 144V109.568H564.675V119.296L563.331 116.48C564.355 114.048 565.998 112.213 568.259 110.976C570.521 109.696 573.273 109.056 576.515 109.056V118.272C576.089 118.229 575.705 118.208 575.363 118.208C575.022 118.165 574.659 118.144 574.275 118.144C571.545 118.144 569.326 118.933 567.619 120.512C565.955 122.048 565.123 124.459 565.123 127.744V144H555.139ZM598.523 144.512C594.854 144.512 591.59 143.744 588.731 142.208C585.915 140.672 583.675 138.581 582.011 135.936C580.39 133.248 579.579 130.197 579.579 126.784C579.579 123.328 580.39 120.277 582.011 117.632C583.675 114.944 585.915 112.853 588.731 111.36C591.59 109.824 594.854 109.056 598.523 109.056C602.15 109.056 605.393 109.824 608.251 111.36C611.11 112.853 613.35 114.923 614.971 117.568C616.593 120.213 617.403 123.285 617.403 126.784C617.403 130.197 616.593 133.248 614.971 135.936C613.35 138.581 611.11 140.672 608.251 142.208C605.393 143.744 602.15 144.512 598.523 144.512ZM598.523 136.32C600.187 136.32 601.681 135.936 603.003 135.168C604.326 134.4 605.371 133.312 606.139 131.904C606.907 130.453 607.291 128.747 607.291 126.784C607.291 124.779 606.907 123.072 606.139 121.664C605.371 120.256 604.326 119.168 603.003 118.4C601.681 117.632 600.187 117.248 598.523 117.248C596.859 117.248 595.366 117.632 594.043 118.4C592.721 119.168 591.654 120.256 590.843 121.664C590.075 123.072 589.691 124.779 589.691 126.784C589.691 128.747 590.075 130.453 590.843 131.904C591.654 133.312 592.721 134.4 594.043 135.168C595.366 135.936 596.859 136.32 598.523 136.32ZM624.077 144V109.568H633.613V119.296L632.269 116.48C633.293 114.048 634.935 112.213 637.197 110.976C639.458 109.696 642.21 109.056 645.453 109.056V118.272C645.026 118.229 644.642 118.208 644.301 118.208C643.959 118.165 643.597 118.144 643.213 118.144C640.482 118.144 638.263 118.933 636.557 120.512C634.893 122.048 634.061 124.459 634.061 127.744V144H624.077Z" fill="#E7E7E7"/>
<path d="M413.574 196.12C412.534 196.12 411.534 195.953 410.574 195.62C409.627 195.273 408.894 194.833 408.374 194.3L408.954 193.16C409.447 193.64 410.107 194.047 410.934 194.38C411.774 194.7 412.654 194.86 413.574 194.86C414.454 194.86 415.167 194.753 415.714 194.54C416.274 194.313 416.68 194.013 416.934 193.64C417.2 193.267 417.334 192.853 417.334 192.4C417.334 191.853 417.174 191.413 416.854 191.08C416.547 190.747 416.14 190.487 415.634 190.3C415.127 190.1 414.567 189.927 413.954 189.78C413.34 189.633 412.727 189.48 412.114 189.32C411.5 189.147 410.934 188.92 410.414 188.64C409.907 188.36 409.494 187.993 409.174 187.54C408.867 187.073 408.714 186.467 408.714 185.72C408.714 185.027 408.894 184.393 409.254 183.82C409.627 183.233 410.194 182.767 410.954 182.42C411.714 182.06 412.687 181.88 413.874 181.88C414.66 181.88 415.44 181.993 416.214 182.22C416.987 182.433 417.654 182.733 418.214 183.12L417.714 184.3C417.114 183.9 416.474 183.607 415.794 183.42C415.127 183.233 414.48 183.14 413.854 183.14C413.014 183.14 412.32 183.253 411.774 183.48C411.227 183.707 410.82 184.013 410.554 184.4C410.3 184.773 410.174 185.2 410.174 185.68C410.174 186.227 410.327 186.667 410.634 187C410.954 187.333 411.367 187.593 411.874 187.78C412.394 187.967 412.96 188.133 413.574 188.28C414.187 188.427 414.794 188.587 415.394 188.76C416.007 188.933 416.567 189.16 417.074 189.44C417.594 189.707 418.007 190.067 418.314 190.52C418.634 190.973 418.794 191.567 418.794 192.3C418.794 192.98 418.607 193.613 418.234 194.2C417.86 194.773 417.287 195.24 416.514 195.6C415.754 195.947 414.774 196.12 413.574 196.12ZM425.038 196.1C424.052 196.1 423.292 195.833 422.758 195.3C422.225 194.767 421.958 194.013 421.958 193.04V183.18H423.378V192.96C423.378 193.573 423.532 194.047 423.838 194.38C424.158 194.713 424.612 194.88 425.198 194.88C425.825 194.88 426.345 194.7 426.758 194.34L427.258 195.36C426.978 195.613 426.638 195.8 426.238 195.92C425.852 196.04 425.452 196.1 425.038 196.1ZM420.078 186.68V185.5H426.578V186.68H420.078ZM434.183 196.1C433.29 196.1 432.51 195.933 431.843 195.6C431.177 195.267 430.657 194.767 430.283 194.1C429.923 193.433 429.743 192.6 429.743 191.6V185.5H431.163V191.44C431.163 192.56 431.437 193.407 431.983 193.98C432.543 194.54 433.323 194.82 434.323 194.82C435.057 194.82 435.69 194.673 436.223 194.38C436.77 194.073 437.183 193.633 437.463 193.06C437.757 192.487 437.903 191.8 437.903 191V185.5H439.323V196H437.963V193.12L438.183 193.64C437.85 194.413 437.33 195.02 436.623 195.46C435.93 195.887 435.117 196.1 434.183 196.1ZM447.461 196.1C446.461 196.1 445.561 195.873 444.761 195.42C443.974 194.967 443.354 194.34 442.901 193.54C442.447 192.727 442.221 191.793 442.221 190.74C442.221 189.673 442.447 188.74 442.901 187.94C443.354 187.14 443.974 186.52 444.761 186.08C445.561 185.627 446.461 185.4 447.461 185.4C448.381 185.4 449.201 185.607 449.921 186.02C450.654 186.433 451.234 187.04 451.661 187.84C452.101 188.627 452.321 189.593 452.321 190.74C452.321 191.873 452.107 192.84 451.681 193.64C451.254 194.44 450.674 195.053 449.941 195.48C449.221 195.893 448.394 196.1 447.461 196.1ZM447.561 194.84C448.307 194.84 448.974 194.673 449.561 194.34C450.161 193.993 450.627 193.513 450.961 192.9C451.307 192.273 451.481 191.553 451.481 190.74C451.481 189.913 451.307 189.193 450.961 188.58C450.627 187.967 450.161 187.493 449.561 187.16C448.974 186.813 448.307 186.64 447.561 186.64C446.827 186.64 446.167 186.813 445.581 187.16C444.994 187.493 444.527 187.967 444.181 188.58C443.834 189.193 443.661 189.913 443.661 190.74C443.661 191.553 443.834 192.273 444.181 192.9C444.527 193.513 444.994 193.993 445.581 194.34C446.167 194.673 446.827 194.84 447.561 194.84ZM451.521 196V192.84L451.661 190.72L451.461 188.6V181.16H452.881V196H451.521ZM461.295 196.1C460.202 196.1 459.242 195.873 458.415 195.42C457.589 194.953 456.942 194.32 456.475 193.52C456.009 192.707 455.775 191.78 455.775 190.74C455.775 189.7 455.995 188.78 456.435 187.98C456.889 187.18 457.502 186.553 458.275 186.1C459.062 185.633 459.942 185.4 460.915 185.4C461.902 185.4 462.775 185.627 463.535 186.08C464.309 186.52 464.915 187.147 465.355 187.96C465.795 188.76 466.015 189.687 466.015 190.74C466.015 190.807 466.009 190.88 465.995 190.96C465.995 191.027 465.995 191.1 465.995 191.18H456.855V190.12H465.235L464.675 190.54C464.675 189.78 464.509 189.107 464.175 188.52C463.855 187.92 463.415 187.453 462.855 187.12C462.295 186.787 461.649 186.62 460.915 186.62C460.195 186.62 459.549 186.787 458.975 187.12C458.402 187.453 457.955 187.92 457.635 188.52C457.315 189.12 457.155 189.807 457.155 190.58V190.8C457.155 191.6 457.329 192.307 457.675 192.92C458.035 193.52 458.529 193.993 459.155 194.34C459.795 194.673 460.522 194.84 461.335 194.84C461.975 194.84 462.569 194.727 463.115 194.5C463.675 194.273 464.155 193.927 464.555 193.46L465.355 194.38C464.889 194.94 464.302 195.367 463.595 195.66C462.902 195.953 462.135 196.1 461.295 196.1ZM474.266 185.4C475.119 185.4 475.866 185.567 476.506 185.9C477.159 186.22 477.666 186.713 478.026 187.38C478.399 188.047 478.586 188.887 478.586 189.9V196H477.166V190.04C477.166 188.933 476.886 188.1 476.326 187.54C475.779 186.967 475.006 186.68 474.006 186.68C473.259 186.68 472.606 186.833 472.046 187.14C471.499 187.433 471.072 187.867 470.766 188.44C470.472 189 470.326 189.68 470.326 190.48V196H468.906V185.5H470.266V188.38L470.046 187.84C470.379 187.08 470.912 186.487 471.646 186.06C472.379 185.62 473.252 185.4 474.266 185.4ZM485.741 196.1C484.755 196.1 483.995 195.833 483.461 195.3C482.928 194.767 482.661 194.013 482.661 193.04V183.18H484.081V192.96C484.081 193.573 484.235 194.047 484.541 194.38C484.861 194.713 485.315 194.88 485.901 194.88C486.528 194.88 487.048 194.7 487.461 194.34L487.961 195.36C487.681 195.613 487.341 195.8 486.941 195.92C486.555 196.04 486.155 196.1 485.741 196.1ZM480.781 186.68V185.5H487.281V186.68H480.781Z" fill="#E7E7E7"/>
</g>
</g>
<defs>
<linearGradient id="paint0_linear_517_4" x1="448" y1="0" x2="448" y2="288" gradientUnits="userSpaceOnUse">
<stop stop-color="#0F172A"/>
<stop offset="1" stop-color="#0F172A" stop-opacity="0"/>
</linearGradient>
<linearGradient id="paint1_linear_517_4" x1="448" y1="0" x2="448" y2="288" gradientUnits="userSpaceOnUse">
<stop/>
<stop offset="1" stop-opacity="0"/>
</linearGradient>
<clipPath id="clip0_517_4">
<rect width="896" height="288" fill="white"/>
</clipPath>
</defs>
</svg>
