<svg width="896" height="288" viewBox="0 0 896 288" fill="none" xmlns="http://www.w3.org/2000/svg">
<g clip-path="url(#clip0_517_4)">
<mask id="mask0_517_4" style="mask-type:luminance" maskUnits="userSpaceOnUse" x="0" y="0" width="896" height="288">
<path d="M0 32C0 14.3269 14.3269 0 32 0H864C881.673 0 896 14.3269 896 32V288H0V32Z" fill="white"/>
</mask>
<g mask="url(#mask0_517_4)">
<path d="M896 0H0V288H896V0Z" fill="url(#paint0_linear_517_4)"/>
<mask id="mask1_517_4" style="mask-type:alpha" maskUnits="userSpaceOnUse" x="0" y="0" width="896" height="288">
<path d="M896 0H0V288H896V0Z" fill="url(#paint1_linear_517_4)"/>
</mask>
<g mask="url(#mask1_517_4)">
<path d="M32.5001 0V288M64.5001 0V288M96.5001 0V288M128.5 0V288M160.5 0V288M192.5 0V288M224.5 0V288M256.5 0V288M288.5 0V288M320.5 0V288M352.5 0V288M384.5 0V288M416.5 0V288M448.5 0V288M480.5 0V288M512.5 0V288M544.5 0V288M576.5 0V288M608.5 0V288M640.5 0V288M672.5 0V288M704.5 0V288M736.5 0V288M768.5 0V288M800.5 0V288M832.5 0V288M864.5 0V288M0 31.5H896M0 63.5H896M0 95.5H896M0 127.5H896M0 159.5H896M0 191.5H896M0 223.5H896M0 255.5H896" stroke="white" stroke-opacity="0.04" stroke-dasharray="5 5"/>
</g>
</g>
<path d="M254.25 144V99.2H264.618V144H254.25ZM272.818 117.76L277.042 102.4L278.45 108.224C276.615 108.224 275.1 107.691 273.906 106.624C272.754 105.515 272.178 104.021 272.178 102.144C272.178 100.309 272.775 98.8373 273.97 97.728C275.164 96.576 276.636 96 278.385 96C280.178 96 281.65 96.576 282.802 97.728C283.954 98.8373 284.53 100.309 284.53 102.144C284.53 102.699 284.487 103.253 284.402 103.808C284.359 104.32 284.21 104.939 283.954 105.664C283.74 106.389 283.378 107.349 282.866 108.544L279.154 117.76H272.818ZM335.392 109.056C338.122 109.056 340.533 109.611 342.624 110.72C344.757 111.787 346.421 113.451 347.616 115.712C348.853 117.931 349.472 120.789 349.472 124.288V144H339.488V125.824C339.488 123.051 338.912 121.003 337.76 119.68C336.608 118.357 334.986 117.696 332.896 117.696C331.445 117.696 330.144 118.037 328.992 118.72C327.84 119.36 326.944 120.341 326.304 121.664C325.664 122.987 325.344 124.672 325.344 126.72V144H315.36V125.824C315.36 123.051 314.784 121.003 313.632 119.68C312.522 118.357 310.922 117.696 308.832 117.696C307.381 117.696 306.08 118.037 304.928 118.72C303.776 119.36 302.88 120.341 302.24 121.664C301.6 122.987 301.28 124.672 301.28 126.72V144H291.296V109.568H300.832V118.976L299.04 116.224C300.234 113.877 301.92 112.107 304.096 110.912C306.314 109.675 308.832 109.056 311.648 109.056C314.805 109.056 317.557 109.867 319.904 111.488C322.293 113.067 323.872 115.499 324.64 118.784L321.12 117.824C322.272 115.136 324.106 113.003 326.624 111.424C329.184 109.845 332.106 109.056 335.392 109.056ZM386.786 117.248H408.354V125.312H386.786V117.248ZM387.554 135.68H411.938V144H377.25V99.2H411.106V107.52H387.554V135.68ZM419.483 144V96.512H429.467V144H419.483ZM437.453 129.984V121.984H455.565V129.984H437.453ZM456.736 144L476.705 99.2H486.945L506.977 144H496.097L479.713 104.448H483.809L467.361 144H456.736ZM466.72 134.4L469.473 126.528H492.513L495.329 134.4H466.72ZM531.273 144.512C528.243 144.512 525.641 143.872 523.465 142.592C521.289 141.312 519.625 139.371 518.473 136.768C517.321 134.123 516.745 130.795 516.745 126.784C516.745 122.731 517.342 119.403 518.537 116.8C519.774 114.197 521.481 112.256 523.657 110.976C525.833 109.696 528.371 109.056 531.273 109.056C534.515 109.056 537.417 109.781 539.977 111.232C542.579 112.683 544.627 114.731 546.121 117.376C547.657 120.021 548.425 123.157 548.425 126.784C548.425 130.368 547.657 133.483 546.121 136.128C544.627 138.773 542.579 140.843 539.977 142.336C537.417 143.787 534.515 144.512 531.273 144.512ZM510.921 144V96.512H520.905V116.544L520.265 126.72L520.457 136.96V144H510.921ZM529.545 136.32C531.209 136.32 532.681 135.936 533.961 135.168C535.283 134.4 536.329 133.312 537.097 131.904C537.907 130.453 538.312 128.747 538.312 126.784C538.312 124.779 537.907 123.072 537.097 121.664C536.329 120.256 535.283 119.168 533.961 118.4C532.681 117.632 531.209 117.248 529.545 117.248C527.881 117.248 526.387 117.632 525.065 118.4C523.742 119.168 522.697 120.256 521.929 121.664C521.161 123.072 520.777 124.779 520.777 126.784C520.777 128.747 521.161 130.453 521.929 131.904C522.697 133.312 523.742 134.4 525.065 135.168C526.387 135.936 527.881 136.32 529.545 136.32ZM555.108 144V109.568H564.644V119.296L563.3 116.48C564.324 114.048 565.967 112.213 568.228 110.976C570.489 109.696 573.241 109.056 576.484 109.056V118.272C576.057 118.229 575.673 118.208 575.332 118.208C574.991 118.165 574.628 118.144 574.244 118.144C571.513 118.144 569.295 118.933 567.588 120.512C565.924 122.048 565.092 124.459 565.092 127.744V144H555.108ZM598.555 144.512C594.885 144.512 591.621 143.744 588.763 142.208C585.947 140.672 583.707 138.581 582.043 135.936C580.421 133.248 579.611 130.197 579.611 126.784C579.611 123.328 580.421 120.277 582.043 117.632C583.707 114.944 585.947 112.853 588.763 111.36C591.621 109.824 594.885 109.056 598.555 109.056C602.181 109.056 605.424 109.824 608.283 111.36C611.141 112.853 613.381 114.923 615.003 117.568C616.624 120.213 617.435 123.285 617.435 126.784C617.435 130.197 616.624 133.248 615.003 135.936C613.381 138.581 611.141 140.672 608.283 142.208C605.424 143.744 602.181 144.512 598.555 144.512ZM598.555 136.32C600.219 136.32 601.712 135.936 603.035 135.168C604.357 134.4 605.403 133.312 606.171 131.904C606.939 130.453 607.323 128.747 607.323 126.784C607.323 124.779 606.939 123.072 606.171 121.664C605.403 120.256 604.357 119.168 603.035 118.4C601.712 117.632 600.219 117.248 598.555 117.248C596.891 117.248 595.397 117.632 594.075 118.4C592.752 119.168 591.685 120.256 590.875 121.664C590.107 123.072 589.723 124.779 589.723 126.784C589.723 128.747 590.107 130.453 590.875 131.904C591.685 133.312 592.752 134.4 594.075 135.168C595.397 135.936 596.891 136.32 598.555 136.32ZM624.108 144V109.568H633.644V119.296L632.3 116.48C633.324 114.048 634.967 112.213 637.228 110.976C639.489 109.696 642.241 109.056 645.484 109.056V118.272C645.057 118.229 644.673 118.208 644.332 118.208C643.991 118.165 643.628 118.144 643.244 118.144C640.513 118.144 638.295 118.933 636.588 120.512C634.924 122.048 634.092 124.459 634.092 127.744V144H624.108Z" fill="white"/>
</g>
<defs>
<linearGradient id="paint0_linear_517_4" x1="448" y1="0" x2="448" y2="288" gradientUnits="userSpaceOnUse">
<stop stop-color="#0F172A"/>
<stop offset="1" stop-color="#0F172A" stop-opacity="0"/>
</linearGradient>
<linearGradient id="paint1_linear_517_4" x1="448" y1="0" x2="448" y2="288" gradientUnits="userSpaceOnUse">
<stop/>
<stop offset="1" stop-opacity="0"/>
</linearGradient>
<clipPath id="clip0_517_4">
<rect width="896" height="288" fill="white"/>
</clipPath>
</defs>
</svg>
