<svg width="896" height="288" viewBox="0 0 896 288" fill="none" xmlns="http://www.w3.org/2000/svg">
<g clip-path="url(#clip0_517_4)">
<mask id="mask0_517_4" style="mask-type:luminance" maskUnits="userSpaceOnUse" x="0" y="0" width="896" height="288">
<path d="M0 32C0 14.3269 14.3269 0 32 0H864C881.673 0 896 14.3269 896 32V288H0V32Z" fill="white"/>
</mask>
<g mask="url(#mask0_517_4)">
<path d="M896 0H0V288H896V0Z" fill="url(#paint0_linear_517_4)"/>
<mask id="mask1_517_4" style="mask-type:alpha" maskUnits="userSpaceOnUse" x="0" y="0" width="896" height="288">
<path d="M896 0H0V288H896V0Z" fill="url(#paint1_linear_517_4)"/>
</mask>
<g mask="url(#mask1_517_4)">
<path d="M32.5001 0V288M64.5001 0V288M96.5001 0V288M128.5 0V288M160.5 0V288M192.5 0V288M224.5 0V288M256.5 0V288M288.5 0V288M320.5 0V288M352.5 0V288M384.5 0V288M416.5 0V288M448.5 0V288M480.5 0V288M512.5 0V288M544.5 0V288M576.5 0V288M608.5 0V288M640.5 0V288M672.5 0V288M704.5 0V288M736.5 0V288M768.5 0V288M800.5 0V288M832.5 0V288M864.5 0V288M0 31.5H896M0 63.5H896M0 95.5H896M0 127.5H896M0 159.5H896M0 191.5H896M0 223.5H896M0 255.5H896" stroke="white" stroke-opacity="0.04" stroke-dasharray="5 5"/>
</g>
<path d="M254.25 144V99.2H264.618V144H254.25ZM272.818 117.76L277.042 102.4L278.45 108.224C276.615 108.224 275.1 107.691 273.906 106.624C272.754 105.515 272.178 104.021 272.178 102.144C272.178 100.309 272.775 98.8373 273.97 97.728C275.164 96.576 276.636 96 278.385 96C280.178 96 281.65 96.576 282.802 97.728C283.954 98.8373 284.53 100.309 284.53 102.144C284.53 102.699 284.487 103.253 284.402 103.808C284.359 104.32 284.21 104.939 283.954 105.664C283.74 106.389 283.378 107.349 282.866 108.544L279.154 117.76H272.818ZM335.392 109.056C338.122 109.056 340.533 109.611 342.624 110.72C344.757 111.787 346.421 113.451 347.616 115.712C348.853 117.931 349.472 120.789 349.472 124.288V144H339.488V125.824C339.488 123.051 338.912 121.003 337.76 119.68C336.608 118.357 334.986 117.696 332.896 117.696C331.445 117.696 330.144 118.037 328.992 118.72C327.84 119.36 326.944 120.341 326.304 121.664C325.664 122.987 325.344 124.672 325.344 126.72V144H315.36V125.824C315.36 123.051 314.784 121.003 313.632 119.68C312.522 118.357 310.922 117.696 308.832 117.696C307.381 117.696 306.08 118.037 304.928 118.72C303.776 119.36 302.88 120.341 302.24 121.664C301.6 122.987 301.28 124.672 301.28 126.72V144H291.296V109.568H300.832V118.976L299.04 116.224C300.234 113.877 301.92 112.107 304.096 110.912C306.314 109.675 308.832 109.056 311.648 109.056C314.805 109.056 317.557 109.867 319.904 111.488C322.293 113.067 323.872 115.499 324.64 118.784L321.12 117.824C322.272 115.136 324.106 113.003 326.624 111.424C329.184 109.845 332.106 109.056 335.392 109.056ZM386.786 117.248H408.354V125.312H386.786V117.248ZM387.554 135.68H411.938V144H377.25V99.2H411.106V107.52H387.554V135.68ZM419.483 144V96.512H429.467V144H419.483ZM437.453 129.984V121.984H455.565V129.984H437.453ZM456.736 144L476.705 99.2H486.945L506.977 144H496.097L479.713 104.448H483.809L467.361 144H456.736ZM466.72 134.4L469.473 126.528H492.513L495.329 134.4H466.72ZM531.273 144.512C528.243 144.512 525.641 143.872 523.465 142.592C521.289 141.312 519.625 139.371 518.473 136.768C517.321 134.123 516.745 130.795 516.745 126.784C516.745 122.731 517.342 119.403 518.537 116.8C519.774 114.197 521.481 112.256 523.657 110.976C525.833 109.696 528.371 109.056 531.273 109.056C534.515 109.056 537.417 109.781 539.977 111.232C542.579 112.683 544.627 114.731 546.121 117.376C547.657 120.021 548.425 123.157 548.425 126.784C548.425 130.368 547.657 133.483 546.121 136.128C544.627 138.773 542.579 140.843 539.977 142.336C537.417 143.787 534.515 144.512 531.273 144.512ZM510.921 144V96.512H520.905V116.544L520.265 126.72L520.457 136.96V144H510.921ZM529.545 136.32C531.209 136.32 532.681 135.936 533.961 135.168C535.283 134.4 536.329 133.312 537.097 131.904C537.907 130.453 538.312 128.747 538.312 126.784C538.312 124.779 537.907 123.072 537.097 121.664C536.329 120.256 535.283 119.168 533.961 118.4C532.681 117.632 531.209 117.248 529.545 117.248C527.881 117.248 526.387 117.632 525.065 118.4C523.742 119.168 522.697 120.256 521.929 121.664C521.161 123.072 520.777 124.779 520.777 126.784C520.777 128.747 521.161 130.453 521.929 131.904C522.697 133.312 523.742 134.4 525.065 135.168C526.387 135.936 527.881 136.32 529.545 136.32ZM555.108 144V109.568H564.644V119.296L563.3 116.48C564.324 114.048 565.967 112.213 568.228 110.976C570.489 109.696 573.241 109.056 576.484 109.056V118.272C576.057 118.229 575.673 118.208 575.332 118.208C574.991 118.165 574.628 118.144 574.244 118.144C571.513 118.144 569.295 118.933 567.588 120.512C565.924 122.048 565.092 124.459 565.092 127.744V144H555.108ZM598.555 144.512C594.885 144.512 591.621 143.744 588.763 142.208C585.947 140.672 583.707 138.581 582.043 135.936C580.421 133.248 579.611 130.197 579.611 126.784C579.611 123.328 580.421 120.277 582.043 117.632C583.707 114.944 585.947 112.853 588.763 111.36C591.621 109.824 594.885 109.056 598.555 109.056C602.181 109.056 605.424 109.824 608.283 111.36C611.141 112.853 613.381 114.923 615.003 117.568C616.624 120.213 617.435 123.285 617.435 126.784C617.435 130.197 616.624 133.248 615.003 135.936C613.381 138.581 611.141 140.672 608.283 142.208C605.424 143.744 602.181 144.512 598.555 144.512ZM598.555 136.32C600.219 136.32 601.712 135.936 603.035 135.168C604.357 134.4 605.403 133.312 606.171 131.904C606.939 130.453 607.323 128.747 607.323 126.784C607.323 124.779 606.939 123.072 606.171 121.664C605.403 120.256 604.357 119.168 603.035 118.4C601.712 117.632 600.219 117.248 598.555 117.248C596.891 117.248 595.397 117.632 594.075 118.4C592.752 119.168 591.685 120.256 590.875 121.664C590.107 123.072 589.723 124.779 589.723 126.784C589.723 128.747 590.107 130.453 590.875 131.904C591.685 133.312 592.752 134.4 594.075 135.168C595.397 135.936 596.891 136.32 598.555 136.32ZM624.108 144V109.568H633.644V119.296L632.3 116.48C633.324 114.048 634.967 112.213 637.228 110.976C639.489 109.696 642.241 109.056 645.484 109.056V118.272C645.057 118.229 644.673 118.208 644.332 118.208C643.991 118.165 643.628 118.144 643.244 118.144C640.513 118.144 638.295 118.933 636.588 120.512C634.924 122.048 634.092 124.459 634.092 127.744V144H624.108Z" fill="#E7E7E7"/>
<path d="M332.724 196.12C331.684 196.12 330.684 195.953 329.724 195.62C328.777 195.273 328.044 194.833 327.524 194.3L328.104 193.16C328.597 193.64 329.257 194.047 330.084 194.38C330.924 194.7 331.804 194.86 332.724 194.86C333.604 194.86 334.317 194.753 334.864 194.54C335.424 194.313 335.831 194.013 336.084 193.64C336.351 193.267 336.484 192.853 336.484 192.4C336.484 191.853 336.324 191.413 336.004 191.08C335.697 190.747 335.291 190.487 334.784 190.3C334.277 190.1 333.717 189.927 333.104 189.78C332.491 189.633 331.877 189.48 331.264 189.32C330.651 189.147 330.084 188.92 329.564 188.64C329.057 188.36 328.644 187.993 328.324 187.54C328.017 187.073 327.864 186.467 327.864 185.72C327.864 185.027 328.044 184.393 328.404 183.82C328.777 183.233 329.344 182.767 330.104 182.42C330.864 182.06 331.837 181.88 333.024 181.88C333.811 181.88 334.591 181.993 335.364 182.22C336.137 182.433 336.804 182.733 337.364 183.12L336.864 184.3C336.264 183.9 335.624 183.607 334.944 183.42C334.277 183.233 333.631 183.14 333.004 183.14C332.164 183.14 331.471 183.253 330.924 183.48C330.377 183.707 329.971 184.013 329.704 184.4C329.451 184.773 329.324 185.2 329.324 185.68C329.324 186.227 329.477 186.667 329.784 187C330.104 187.333 330.517 187.593 331.024 187.78C331.544 187.967 332.111 188.133 332.724 188.28C333.337 188.427 333.944 188.587 334.544 188.76C335.157 188.933 335.717 189.16 336.224 189.44C336.744 189.707 337.157 190.067 337.464 190.52C337.784 190.973 337.944 191.567 337.944 192.3C337.944 192.98 337.757 193.613 337.384 194.2C337.011 194.773 336.437 195.24 335.664 195.6C334.904 195.947 333.924 196.12 332.724 196.12ZM344.189 196.1C343.202 196.1 342.442 195.833 341.909 195.3C341.375 194.767 341.109 194.013 341.109 193.04V183.18H342.529V192.96C342.529 193.573 342.682 194.047 342.989 194.38C343.309 194.713 343.762 194.88 344.349 194.88C344.975 194.88 345.495 194.7 345.909 194.34L346.409 195.36C346.129 195.613 345.789 195.8 345.389 195.92C345.002 196.04 344.602 196.1 344.189 196.1ZM339.229 186.68V185.5H345.729V186.68H339.229ZM353.334 196.1C352.44 196.1 351.66 195.933 350.994 195.6C350.327 195.267 349.807 194.767 349.434 194.1C349.074 193.433 348.894 192.6 348.894 191.6V185.5H350.314V191.44C350.314 192.56 350.587 193.407 351.134 193.98C351.694 194.54 352.474 194.82 353.474 194.82C354.207 194.82 354.84 194.673 355.374 194.38C355.92 194.073 356.334 193.633 356.614 193.06C356.907 192.487 357.054 191.8 357.054 191V185.5H358.474V196H357.114V193.12L357.334 193.64C357 194.413 356.48 195.02 355.774 195.46C355.08 195.887 354.267 196.1 353.334 196.1ZM366.611 196.1C365.611 196.1 364.711 195.873 363.911 195.42C363.125 194.967 362.505 194.34 362.051 193.54C361.598 192.727 361.371 191.793 361.371 190.74C361.371 189.673 361.598 188.74 362.051 187.94C362.505 187.14 363.125 186.52 363.911 186.08C364.711 185.627 365.611 185.4 366.611 185.4C367.531 185.4 368.351 185.607 369.071 186.02C369.805 186.433 370.385 187.04 370.811 187.84C371.251 188.627 371.471 189.593 371.471 190.74C371.471 191.873 371.258 192.84 370.831 193.64C370.405 194.44 369.825 195.053 369.091 195.48C368.371 195.893 367.545 196.1 366.611 196.1ZM366.711 194.84C367.458 194.84 368.125 194.673 368.711 194.34C369.311 193.993 369.778 193.513 370.111 192.9C370.458 192.273 370.631 191.553 370.631 190.74C370.631 189.913 370.458 189.193 370.111 188.58C369.778 187.967 369.311 187.493 368.711 187.16C368.125 186.813 367.458 186.64 366.711 186.64C365.978 186.64 365.318 186.813 364.731 187.16C364.145 187.493 363.678 187.967 363.331 188.58C362.985 189.193 362.811 189.913 362.811 190.74C362.811 191.553 362.985 192.273 363.331 192.9C363.678 193.513 364.145 193.993 364.731 194.34C365.318 194.673 365.978 194.84 366.711 194.84ZM370.671 196V192.84L370.811 190.72L370.611 188.6V181.16H372.031V196H370.671ZM380.446 196.1C379.353 196.1 378.393 195.873 377.566 195.42C376.739 194.953 376.093 194.32 375.626 193.52C375.159 192.707 374.926 191.78 374.926 190.74C374.926 189.7 375.146 188.78 375.586 187.98C376.039 187.18 376.653 186.553 377.426 186.1C378.213 185.633 379.093 185.4 380.066 185.4C381.053 185.4 381.926 185.627 382.686 186.08C383.459 186.52 384.066 187.147 384.506 187.96C384.946 188.76 385.166 189.687 385.166 190.74C385.166 190.807 385.159 190.88 385.146 190.96C385.146 191.027 385.146 191.1 385.146 191.18H376.006V190.12H384.386L383.826 190.54C383.826 189.78 383.659 189.107 383.326 188.52C383.006 187.92 382.566 187.453 382.006 187.12C381.446 186.787 380.799 186.62 380.066 186.62C379.346 186.62 378.699 186.787 378.126 187.12C377.553 187.453 377.106 187.92 376.786 188.52C376.466 189.12 376.306 189.807 376.306 190.58V190.8C376.306 191.6 376.479 192.307 376.826 192.92C377.186 193.52 377.679 193.993 378.306 194.34C378.946 194.673 379.673 194.84 380.486 194.84C381.126 194.84 381.719 194.727 382.266 194.5C382.826 194.273 383.306 193.927 383.706 193.46L384.506 194.38C384.039 194.94 383.453 195.367 382.746 195.66C382.053 195.953 381.286 196.1 380.446 196.1ZM393.416 185.4C394.27 185.4 395.016 185.567 395.656 185.9C396.31 186.22 396.816 186.713 397.176 187.38C397.55 188.047 397.736 188.887 397.736 189.9V196H396.316V190.04C396.316 188.933 396.036 188.1 395.476 187.54C394.93 186.967 394.156 186.68 393.156 186.68C392.41 186.68 391.756 186.833 391.196 187.14C390.65 187.433 390.223 187.867 389.916 188.44C389.623 189 389.476 189.68 389.476 190.48V196H388.056V185.5H389.416V188.38L389.196 187.84C389.53 187.08 390.063 186.487 390.796 186.06C391.53 185.62 392.403 185.4 393.416 185.4ZM404.892 196.1C403.905 196.1 403.145 195.833 402.612 195.3C402.078 194.767 401.812 194.013 401.812 193.04V183.18H403.232V192.96C403.232 193.573 403.385 194.047 403.692 194.38C404.012 194.713 404.465 194.88 405.052 194.88C405.678 194.88 406.198 194.7 406.612 194.34L407.112 195.36C406.832 195.613 406.492 195.8 406.092 195.92C405.705 196.04 405.305 196.1 404.892 196.1ZM399.932 186.68V185.5H406.432V186.68H399.932ZM415.231 199.88V181.16H416.551V199.88H415.231ZM426.344 196V182H432.384C433.944 182 435.151 182.313 436.004 182.94C436.871 183.567 437.304 184.453 437.304 185.6C437.304 186.36 437.124 187 436.764 187.52C436.418 188.04 435.938 188.433 435.324 188.7C434.724 188.967 434.064 189.1 433.344 189.1L433.684 188.62C434.578 188.62 435.344 188.76 435.984 189.04C436.638 189.307 437.144 189.713 437.504 190.26C437.864 190.793 438.044 191.46 438.044 192.26C438.044 193.447 437.604 194.367 436.724 195.02C435.858 195.673 434.544 196 432.784 196H426.344ZM427.824 194.78H432.764C433.991 194.78 434.931 194.573 435.584 194.16C436.238 193.733 436.564 193.06 436.564 192.14C436.564 191.233 436.238 190.573 435.584 190.16C434.931 189.733 433.991 189.52 432.764 189.52H427.664V188.3H432.284C433.404 188.3 434.271 188.087 434.884 187.66C435.511 187.233 435.824 186.6 435.824 185.76C435.824 184.907 435.511 184.273 434.884 183.86C434.271 183.433 433.404 183.22 432.284 183.22H427.824V194.78ZM445.583 196.1C444.489 196.1 443.529 195.873 442.703 195.42C441.876 194.953 441.229 194.32 440.763 193.52C440.296 192.707 440.063 191.78 440.063 190.74C440.063 189.7 440.283 188.78 440.723 187.98C441.176 187.18 441.789 186.553 442.563 186.1C443.349 185.633 444.229 185.4 445.203 185.4C446.189 185.4 447.063 185.627 447.823 186.08C448.596 186.52 449.203 187.147 449.643 187.96C450.083 188.76 450.303 189.687 450.303 190.74C450.303 190.807 450.296 190.88 450.283 190.96C450.283 191.027 450.283 191.1 450.283 191.18H441.143V190.12H449.523L448.963 190.54C448.963 189.78 448.796 189.107 448.463 188.52C448.143 187.92 447.703 187.453 447.143 187.12C446.583 186.787 445.936 186.62 445.203 186.62C444.483 186.62 443.836 186.787 443.263 187.12C442.689 187.453 442.243 187.92 441.923 188.52C441.603 189.12 441.443 189.807 441.443 190.58V190.8C441.443 191.6 441.616 192.307 441.963 192.92C442.323 193.52 442.816 193.993 443.443 194.34C444.083 194.673 444.809 194.84 445.623 194.84C446.263 194.84 446.856 194.727 447.403 194.5C447.963 194.273 448.443 193.927 448.843 193.46L449.643 194.38C449.176 194.94 448.589 195.367 447.883 195.66C447.189 195.953 446.423 196.1 445.583 196.1ZM457.673 199.98C456.713 199.98 455.793 199.84 454.913 199.56C454.033 199.28 453.32 198.88 452.773 198.36L453.493 197.28C453.986 197.72 454.593 198.067 455.313 198.32C456.046 198.587 456.82 198.72 457.633 198.72C458.966 198.72 459.946 198.407 460.573 197.78C461.2 197.167 461.513 196.207 461.513 194.9V192.28L461.713 190.48L461.573 188.68V185.5H462.933V194.72C462.933 196.533 462.486 197.86 461.593 198.7C460.713 199.553 459.406 199.98 457.673 199.98ZM457.413 195.6C456.413 195.6 455.513 195.387 454.713 194.96C453.913 194.52 453.28 193.913 452.813 193.14C452.36 192.367 452.133 191.48 452.133 190.48C452.133 189.48 452.36 188.6 452.813 187.84C453.28 187.067 453.913 186.467 454.713 186.04C455.513 185.613 456.413 185.4 457.413 185.4C458.346 185.4 459.186 185.593 459.933 185.98C460.68 186.367 461.273 186.94 461.713 187.7C462.153 188.46 462.373 189.387 462.373 190.48C462.373 191.573 462.153 192.5 461.713 193.26C461.273 194.02 460.68 194.6 459.933 195C459.186 195.4 458.346 195.6 457.413 195.6ZM457.553 194.34C458.326 194.34 459.013 194.18 459.613 193.86C460.213 193.527 460.686 193.073 461.033 192.5C461.38 191.913 461.553 191.24 461.553 190.48C461.553 189.72 461.38 189.053 461.033 188.48C460.686 187.907 460.213 187.46 459.613 187.14C459.013 186.807 458.326 186.64 457.553 186.64C456.793 186.64 456.106 186.807 455.493 187.14C454.893 187.46 454.42 187.907 454.073 188.48C453.74 189.053 453.573 189.72 453.573 190.48C453.573 191.24 453.74 191.913 454.073 192.5C454.42 193.073 454.893 193.527 455.493 193.86C456.106 194.18 456.793 194.34 457.553 194.34ZM466.884 196V185.5H468.304V196H466.884ZM467.604 183.18C467.311 183.18 467.064 183.08 466.864 182.88C466.664 182.68 466.564 182.44 466.564 182.16C466.564 181.88 466.664 181.647 466.864 181.46C467.064 181.26 467.311 181.16 467.604 181.16C467.898 181.16 468.144 181.253 468.344 181.44C468.544 181.627 468.644 181.86 468.644 182.14C468.644 182.433 468.544 182.68 468.344 182.88C468.158 183.08 467.911 183.18 467.604 183.18ZM477.615 185.4C478.469 185.4 479.215 185.567 479.855 185.9C480.509 186.22 481.015 186.713 481.375 187.38C481.749 188.047 481.935 188.887 481.935 189.9V196H480.515V190.04C480.515 188.933 480.235 188.1 479.675 187.54C479.129 186.967 478.355 186.68 477.355 186.68C476.609 186.68 475.955 186.833 475.395 187.14C474.849 187.433 474.422 187.867 474.115 188.44C473.822 189 473.675 189.68 473.675 190.48V196H472.255V185.5H473.615V188.38L473.395 187.84C473.729 187.08 474.262 186.487 474.995 186.06C475.729 185.62 476.602 185.4 477.615 185.4ZM491.131 185.4C491.984 185.4 492.731 185.567 493.371 185.9C494.024 186.22 494.531 186.713 494.891 187.38C495.264 188.047 495.451 188.887 495.451 189.9V196H494.031V190.04C494.031 188.933 493.751 188.1 493.191 187.54C492.644 186.967 491.871 186.68 490.871 186.68C490.124 186.68 489.471 186.833 488.911 187.14C488.364 187.433 487.938 187.867 487.631 188.44C487.338 189 487.191 189.68 487.191 190.48V196H485.771V185.5H487.131V188.38L486.911 187.84C487.244 187.08 487.778 186.487 488.511 186.06C489.244 185.62 490.118 185.4 491.131 185.4ZM503.747 196.1C502.653 196.1 501.693 195.873 500.867 195.42C500.04 194.953 499.393 194.32 498.927 193.52C498.46 192.707 498.227 191.78 498.227 190.74C498.227 189.7 498.447 188.78 498.887 187.98C499.34 187.18 499.953 186.553 500.727 186.1C501.513 185.633 502.393 185.4 503.367 185.4C504.353 185.4 505.227 185.627 505.987 186.08C506.76 186.52 507.367 187.147 507.807 187.96C508.247 188.76 508.467 189.687 508.467 190.74C508.467 190.807 508.46 190.88 508.447 190.96C508.447 191.027 508.447 191.1 508.447 191.18H499.307V190.12H507.687L507.127 190.54C507.127 189.78 506.96 189.107 506.627 188.52C506.307 187.92 505.867 187.453 505.307 187.12C504.747 186.787 504.1 186.62 503.367 186.62C502.647 186.62 502 186.787 501.427 187.12C500.853 187.453 500.407 187.92 500.087 188.52C499.767 189.12 499.607 189.807 499.607 190.58V190.8C499.607 191.6 499.78 192.307 500.127 192.92C500.487 193.52 500.98 193.993 501.607 194.34C502.247 194.673 502.973 194.84 503.787 194.84C504.427 194.84 505.02 194.727 505.567 194.5C506.127 194.273 506.607 193.927 507.007 193.46L507.807 194.38C507.34 194.94 506.753 195.367 506.047 195.66C505.353 195.953 504.587 196.1 503.747 196.1ZM511.357 196V185.5H512.717V188.36L512.577 187.86C512.87 187.06 513.364 186.453 514.057 186.04C514.75 185.613 515.61 185.4 516.637 185.4V186.78C516.584 186.78 516.53 186.78 516.477 186.78C516.424 186.767 516.37 186.76 516.317 186.76C515.21 186.76 514.344 187.1 513.717 187.78C513.09 188.447 512.777 189.4 512.777 190.64V196H511.357ZM524.919 199.88V181.16H526.239V199.88H524.919ZM551.838 179.906C551.838 179.984 551.818 180.043 551.779 180.082C551.363 180.499 550.848 180.837 550.236 181.098C549.637 181.345 549.051 181.521 548.479 181.625C547.919 181.729 547.359 181.801 546.799 181.84C546.239 181.879 545.679 181.911 545.119 181.938C544.559 181.951 543.999 181.977 543.439 182.016C542.88 182.042 542.326 182.113 541.779 182.23C541.714 183.285 541.545 184.32 541.271 185.336C541.011 186.352 540.712 187.354 540.373 188.344C540.738 188.344 541.096 188.37 541.447 188.422C541.812 188.474 542.176 188.5 542.541 188.5C542.867 188.5 543.186 188.487 543.498 188.461C543.824 188.422 544.143 188.363 544.455 188.285C544.494 188.272 544.553 188.253 544.631 188.227C544.722 188.201 544.807 188.174 544.885 188.148C544.976 188.122 545.054 188.096 545.119 188.07C545.197 188.044 545.243 188.031 545.256 188.031C545.321 188.031 545.393 188.077 545.471 188.168C545.549 188.259 545.588 188.331 545.588 188.383C545.588 188.461 545.555 188.52 545.49 188.559C544.995 188.871 544.436 189.099 543.811 189.242C543.186 189.385 542.587 189.457 542.014 189.457C541.792 189.457 541.577 189.444 541.369 189.418C541.161 189.392 540.946 189.379 540.725 189.379C540.451 189.379 540.204 189.405 539.982 189.457C539.644 190.421 539.266 191.365 538.85 192.289C538.433 193.214 537.99 194.132 537.521 195.043C537.951 195.043 538.374 195.076 538.791 195.141C539.221 195.206 539.644 195.277 540.061 195.355C540.477 195.421 540.894 195.486 541.311 195.551C541.74 195.616 542.17 195.648 542.6 195.648C542.795 195.648 542.99 195.642 543.186 195.629C543.381 195.616 543.576 195.59 543.771 195.551C544.41 195.421 544.95 195.193 545.393 194.867C545.848 194.542 546.304 194.164 546.76 193.734C546.812 193.682 546.864 193.656 546.916 193.656C546.994 193.656 547.066 193.695 547.131 193.773C547.209 193.839 547.248 193.904 547.248 193.969C547.248 194.008 547.235 194.053 547.209 194.105C546.623 194.926 545.913 195.544 545.08 195.961C544.247 196.378 543.329 196.586 542.326 196.586C541.923 196.586 541.525 196.56 541.135 196.508C540.744 196.469 540.354 196.417 539.963 196.352C539.572 196.299 539.182 196.247 538.791 196.195C538.4 196.143 538.003 196.117 537.6 196.117C537.495 196.117 537.385 196.117 537.268 196.117C537.15 196.117 537.04 196.124 536.936 196.137C536.896 196.215 536.844 196.312 536.779 196.43C536.727 196.547 536.649 196.605 536.545 196.605C536.454 196.605 536.369 196.579 536.291 196.527C536.226 196.475 536.193 196.404 536.193 196.312C536.193 196.273 536.206 196.241 536.232 196.215C536.011 196.254 535.809 196.293 535.627 196.332C535.445 196.384 535.269 196.436 535.1 196.488C534.943 196.553 534.781 196.618 534.611 196.684C534.442 196.762 534.253 196.84 534.045 196.918H533.986C533.895 196.918 533.817 196.879 533.752 196.801C533.687 196.736 533.654 196.658 533.654 196.566C533.654 196.501 533.674 196.449 533.713 196.41C534.09 195.993 534.546 195.688 535.08 195.492C535.627 195.284 536.174 195.147 536.721 195.082C537.098 194.21 537.463 193.337 537.814 192.465C538.166 191.579 538.505 190.688 538.83 189.789C538.804 189.802 538.745 189.828 538.654 189.867C538.563 189.906 538.472 189.952 538.381 190.004C538.29 190.043 538.205 190.082 538.127 190.121C538.049 190.147 538.003 190.16 537.99 190.16C537.899 190.16 537.814 190.121 537.736 190.043C537.658 189.952 537.619 189.867 537.619 189.789V189.75C537.619 189.737 537.626 189.73 537.639 189.73C537.795 189.431 538.023 189.184 538.322 188.988C538.635 188.78 538.947 188.624 539.26 188.52C539.598 187.504 539.891 186.482 540.139 185.453C540.386 184.424 540.686 183.409 541.037 182.406C540.542 182.549 540.067 182.751 539.611 183.012C539.169 183.259 538.778 183.578 538.439 183.969C538.335 184.073 538.251 184.184 538.186 184.301C538.12 184.418 538.042 184.529 537.951 184.633C537.912 184.698 537.847 184.73 537.756 184.73C537.691 184.73 537.619 184.704 537.541 184.652C537.463 184.6 537.424 184.529 537.424 184.438C537.424 184.398 537.43 184.372 537.443 184.359C537.795 183.656 538.244 183.09 538.791 182.66C539.351 182.217 539.963 181.879 540.627 181.645C541.291 181.397 541.988 181.228 542.717 181.137C543.459 181.033 544.182 180.961 544.885 180.922C546.057 180.87 547.17 180.759 548.225 180.59C549.279 180.408 550.347 180.076 551.428 179.594C551.454 179.581 551.486 179.574 551.525 179.574C551.617 179.574 551.688 179.613 551.74 179.691C551.805 179.757 551.838 179.828 551.838 179.906ZM561.525 194.77C561.525 194.861 561.408 194.997 561.174 195.18C560.952 195.349 560.692 195.525 560.393 195.707C560.093 195.876 559.8 196.033 559.514 196.176C559.24 196.332 559.051 196.43 558.947 196.469C558.7 196.56 558.465 196.605 558.244 196.605C557.827 196.605 557.535 196.469 557.365 196.195C557.209 195.922 557.131 195.596 557.131 195.219C557.131 194.815 557.202 194.34 557.346 193.793C557.489 193.246 557.658 192.686 557.854 192.113C558.062 191.527 558.27 190.961 558.479 190.414C558.7 189.854 558.882 189.372 559.025 188.969C559.117 188.695 559.214 188.383 559.318 188.031C559.436 187.68 559.494 187.354 559.494 187.055C559.312 187.107 559.097 187.191 558.85 187.309C558.615 187.413 558.42 187.517 558.264 187.621C557.678 188.012 557.111 188.422 556.564 188.852C556.018 189.268 555.471 189.704 554.924 190.16C554.715 190.98 554.481 191.794 554.221 192.602C553.96 193.409 553.661 194.203 553.322 194.984C553.218 195.206 553.114 195.434 553.01 195.668C552.919 195.902 552.808 196.117 552.678 196.312C552.626 196.404 552.554 196.449 552.463 196.449C552.398 196.449 552.32 196.417 552.229 196.352C552.15 196.286 552.111 196.221 552.111 196.156C552.111 196.143 552.124 196.065 552.15 195.922C552.189 195.766 552.215 195.681 552.229 195.668C552.411 194.861 552.626 194.073 552.873 193.305C553.133 192.523 553.394 191.742 553.654 190.961C553.863 190.258 554.058 189.555 554.24 188.852C554.318 188.552 554.39 188.253 554.455 187.953C554.52 187.641 554.553 187.335 554.553 187.035C554.553 186.983 554.546 186.938 554.533 186.898C554.533 186.859 554.533 186.82 554.533 186.781C554.221 186.846 553.876 187.042 553.498 187.367C553.133 187.68 552.769 188.044 552.404 188.461C552.04 188.865 551.695 189.275 551.369 189.691C551.044 190.095 550.77 190.421 550.549 190.668C550.523 190.694 550.503 190.707 550.49 190.707C550.451 190.785 550.412 190.863 550.373 190.941C550.347 191.02 550.314 191.091 550.275 191.156C549.976 191.742 549.689 192.322 549.416 192.895C549.156 193.467 548.902 194.053 548.654 194.652C548.511 194.978 548.381 195.31 548.264 195.648C548.16 195.974 548.042 196.299 547.912 196.625C547.873 196.729 547.801 196.781 547.697 196.781C547.632 196.781 547.554 196.749 547.463 196.684C547.385 196.618 547.346 196.56 547.346 196.508C547.346 196.495 547.359 196.449 547.385 196.371C547.398 196.306 547.417 196.228 547.443 196.137C547.456 196.046 547.469 195.961 547.482 195.883C547.508 195.805 547.521 195.753 547.521 195.727C547.743 194.867 548.01 194.021 548.322 193.188C548.648 192.354 549.006 191.534 549.396 190.727C549.579 190.349 549.755 189.971 549.924 189.594C550.093 189.203 550.275 188.819 550.471 188.441C550.549 188.285 550.64 188.103 550.744 187.895C550.848 187.686 550.959 187.484 551.076 187.289C551.206 187.081 551.337 186.885 551.467 186.703C551.597 186.508 551.721 186.352 551.838 186.234C551.89 186.182 551.949 186.156 552.014 186.156C552.066 186.156 552.137 186.195 552.229 186.273C552.32 186.339 552.365 186.404 552.365 186.469C552.365 186.508 552.339 186.592 552.287 186.723C552.248 186.853 552.202 186.996 552.15 187.152C552.098 187.309 552.04 187.458 551.975 187.602C551.923 187.732 551.89 187.823 551.877 187.875C552.02 187.706 552.196 187.504 552.404 187.27C552.613 187.035 552.834 186.814 553.068 186.605C553.316 186.384 553.57 186.202 553.83 186.059C554.09 185.915 554.344 185.844 554.592 185.844C554.787 185.844 554.943 185.883 555.061 185.961C555.191 186.039 555.282 186.143 555.334 186.273C555.399 186.391 555.438 186.527 555.451 186.684C555.477 186.84 555.49 186.996 555.49 187.152C555.49 187.413 555.471 187.673 555.432 187.934C555.393 188.194 555.34 188.454 555.275 188.715C555.523 188.467 555.822 188.188 556.174 187.875C556.525 187.549 556.903 187.25 557.307 186.977C557.71 186.69 558.114 186.456 558.518 186.273C558.934 186.078 559.318 185.98 559.67 185.98C559.878 185.98 560.067 186.065 560.236 186.234C560.419 186.404 560.51 186.592 560.51 186.801C560.51 187.048 560.497 187.289 560.471 187.523C560.445 187.758 560.393 187.992 560.314 188.227C560.158 188.76 559.976 189.294 559.768 189.828C559.559 190.349 559.351 190.87 559.143 191.391C558.934 191.911 558.732 192.432 558.537 192.953C558.355 193.474 558.199 194.008 558.068 194.555C558.042 194.685 558.016 194.815 557.99 194.945C557.964 195.076 557.951 195.206 557.951 195.336C557.951 195.479 557.964 195.603 557.99 195.707C558.016 195.798 558.114 195.844 558.283 195.844C558.505 195.844 558.771 195.772 559.084 195.629C559.396 195.486 559.702 195.329 560.002 195.16C560.314 194.978 560.581 194.815 560.803 194.672C561.037 194.529 561.18 194.457 561.232 194.457C561.311 194.457 561.376 194.49 561.428 194.555C561.493 194.62 561.525 194.691 561.525 194.77ZM569.416 188.969C569.416 189.464 569.357 190.004 569.24 190.59C569.136 191.176 568.973 191.762 568.752 192.348C568.531 192.934 568.257 193.507 567.932 194.066C567.619 194.613 567.255 195.102 566.838 195.531C566.434 195.961 565.979 196.299 565.471 196.547C564.976 196.807 564.442 196.938 563.869 196.938C563.439 196.938 563.068 196.82 562.756 196.586C562.443 196.365 562.176 196.078 561.955 195.727C561.747 195.375 561.59 194.997 561.486 194.594C561.382 194.177 561.33 193.786 561.33 193.422C561.33 192.992 561.389 192.569 561.506 192.152C561.87 190.954 562.456 189.887 563.264 188.949C564.071 188.012 565.054 187.309 566.213 186.84C566.239 186.827 566.271 186.82 566.311 186.82C566.402 186.82 566.467 186.853 566.506 186.918C566.558 186.983 566.584 187.055 566.584 187.133C566.584 187.224 566.532 187.302 566.428 187.367C566.245 187.471 566.063 187.576 565.881 187.68C565.699 187.771 565.516 187.888 565.334 188.031C564.618 188.552 564.006 189.197 563.498 189.965C562.99 190.733 562.606 191.54 562.346 192.387C562.255 192.66 562.209 192.966 562.209 193.305C562.209 193.578 562.248 193.871 562.326 194.184C562.404 194.496 562.521 194.789 562.678 195.062C562.834 195.323 563.029 195.544 563.264 195.727C563.511 195.896 563.798 195.98 564.123 195.98C564.331 195.98 564.527 195.941 564.709 195.863C564.904 195.785 565.087 195.688 565.256 195.57C565.751 195.219 566.193 194.763 566.584 194.203C566.975 193.643 567.307 193.044 567.58 192.406C567.854 191.755 568.062 191.098 568.205 190.434C568.348 189.757 568.42 189.118 568.42 188.52V188.285C568.394 187.947 568.277 187.66 568.068 187.426C567.873 187.191 567.626 187.003 567.326 186.859C567.235 186.82 567.144 186.788 567.053 186.762C566.975 186.736 566.896 186.703 566.818 186.664C566.688 186.612 566.623 186.521 566.623 186.391C566.623 186.299 566.649 186.221 566.701 186.156C566.753 186.091 566.825 186.065 566.916 186.078H566.936C567.222 186.104 567.502 186.169 567.775 186.273C568.062 186.378 568.316 186.521 568.537 186.703C568.758 186.885 568.941 187.1 569.084 187.348C569.24 187.595 569.338 187.875 569.377 188.188C569.403 188.318 569.416 188.448 569.416 188.578C569.416 188.695 569.416 188.826 569.416 188.969Z" fill="#E7E7E7"/>
</g>
</g>
<defs>
<linearGradient id="paint0_linear_517_4" x1="448" y1="0" x2="448" y2="288" gradientUnits="userSpaceOnUse">
<stop stop-color="#0F172A"/>
<stop offset="1" stop-color="#0F172A" stop-opacity="0"/>
</linearGradient>
<linearGradient id="paint1_linear_517_4" x1="448" y1="0" x2="448" y2="288" gradientUnits="userSpaceOnUse">
<stop/>
<stop offset="1" stop-opacity="0"/>
</linearGradient>
<clipPath id="clip0_517_4">
<rect width="896" height="288" fill="white"/>
</clipPath>
</defs>
</svg>
